<?xml version="1.0" encoding="utf-8"?>
<!-- Generator: Adobe Illustrator 23.0.4, SVG Export Plug-In . SVG Version: 6.00 Build 0)  -->
<svg version="1.1" id="Livello_1" xmlns="http://www.w3.org/2000/svg" xmlns:xlink="http://www.w3.org/1999/xlink" x="0px" y="0px"
	 viewBox="0 0 178.5 100" style="enable-background:new 0 0 178.5 100;" xml:space="preserve">
<style type="text/css">
	.st0{clip-path:url(#SVGID_2_);}
	.st1{clip-path:url(#SVGID_4_);fill:#FEFEFE;}
	.st2{clip-path:url(#SVGID_6_);}
	.st3{clip-path:url(#SVGID_8_);fill:#FEFEFE;}
	.st4{clip-path:url(#SVGID_10_);}
	.st5{clip-path:url(#SVGID_12_);fill:#FEFEFE;}
	.st6{clip-path:url(#SVGID_14_);}
	.st7{clip-path:url(#SVGID_16_);fill:#FEFEFE;}
	.st8{clip-path:url(#SVGID_18_);}
	.st9{clip-path:url(#SVGID_20_);fill:#FEFEFE;}
	.st10{clip-path:url(#SVGID_22_);}
	.st11{clip-path:url(#SVGID_24_);fill:#FEFEFE;}
	.st12{clip-path:url(#SVGID_26_);}
	.st13{clip-path:url(#SVGID_28_);fill:#FEFEFE;}
	.st14{clip-path:url(#SVGID_30_);}
	.st15{clip-path:url(#SVGID_32_);fill:#FEFEFE;}
	.st16{clip-path:url(#SVGID_34_);}
	.st17{clip-path:url(#SVGID_36_);fill:#FEFEFE;}
	.st18{clip-path:url(#SVGID_38_);}
	.st19{clip-path:url(#SVGID_40_);fill:#FEFEFE;}
	.st20{clip-path:url(#SVGID_42_);}
	.st21{clip-path:url(#SVGID_44_);fill:#FEFEFE;}
	.st22{clip-path:url(#SVGID_46_);}
	.st23{clip-path:url(#SVGID_48_);fill:#FEFEFE;}
	.st24{clip-path:url(#SVGID_50_);}
	.st25{clip-path:url(#SVGID_52_);fill:#FEFEFE;}
	.st26{clip-path:url(#SVGID_54_);}
	.st27{clip-path:url(#SVGID_56_);fill:#FEFEFE;}
	.st28{clip-path:url(#SVGID_58_);}
	.st29{clip-path:url(#SVGID_60_);fill:#FEFEFE;}
	.st30{clip-path:url(#SVGID_62_);}
	.st31{clip-path:url(#SVGID_64_);fill:#FEFEFE;}
	.st32{clip-path:url(#SVGID_66_);}
	.st33{clip-path:url(#SVGID_68_);fill:#FEFEFE;}
	.st34{clip-path:url(#SVGID_70_);}
	.st35{clip-path:url(#SVGID_72_);fill:#FEFEFE;}
	.st36{clip-path:url(#SVGID_74_);}
	.st37{clip-path:url(#SVGID_76_);fill:#FEFEFE;}
	.st38{clip-path:url(#SVGID_78_);}
	.st39{clip-path:url(#SVGID_80_);fill:#FEFEFE;}
	.st40{clip-path:url(#SVGID_82_);}
	.st41{clip-path:url(#SVGID_84_);fill:#FEFEFE;}
	.st42{clip-path:url(#SVGID_86_);}
	.st43{clip-path:url(#SVGID_88_);fill:#FEFEFE;}
	.st44{clip-path:url(#SVGID_90_);}
	.st45{clip-path:url(#SVGID_92_);fill:#FEFEFE;}
	.st46{clip-path:url(#SVGID_94_);}
	.st47{clip-path:url(#SVGID_96_);fill:#FEFEFE;}
	.st48{clip-path:url(#SVGID_98_);}
	.st49{clip-path:url(#SVGID_100_);fill:#FEFEFE;}
	.st50{clip-path:url(#SVGID_102_);}
	.st51{clip-path:url(#SVGID_104_);fill:#FEFEFE;}
	.st52{clip-path:url(#SVGID_106_);}
	.st53{clip-path:url(#SVGID_108_);fill:#FEFEFE;}
	.st54{clip-path:url(#SVGID_110_);}
	.st55{clip-path:url(#SVGID_112_);fill:#FEFEFE;}
	.st56{clip-path:url(#SVGID_114_);}
	.st57{clip-path:url(#SVGID_116_);fill:#FEFEFE;}
	.st58{clip-path:url(#SVGID_118_);}
	.st59{clip-path:url(#SVGID_120_);fill:#FEFEFE;}
	.st60{clip-path:url(#SVGID_122_);}
	.st61{clip-path:url(#SVGID_124_);fill:#FEFEFE;}
	.st62{clip-path:url(#SVGID_126_);}
	.st63{clip-path:url(#SVGID_128_);fill:#FEFEFE;}
	.st64{clip-path:url(#SVGID_130_);}
	.st65{clip-path:url(#SVGID_132_);fill:#FEFEFE;}
	.st66{clip-path:url(#SVGID_134_);}
	.st67{clip-path:url(#SVGID_136_);fill:#FEFEFE;}
	.st68{clip-path:url(#SVGID_138_);}
	.st69{clip-path:url(#SVGID_140_);fill:#FEFEFE;}
	.st70{clip-path:url(#SVGID_142_);}
	.st71{clip-path:url(#SVGID_144_);fill:#FEFEFE;}
	.st72{clip-path:url(#SVGID_146_);}
	.st73{clip-path:url(#SVGID_148_);fill:#FEFEFE;}
	.st74{clip-path:url(#SVGID_150_);}
	.st75{clip-path:url(#SVGID_152_);fill:#FEFEFE;}
	.st76{clip-path:url(#SVGID_154_);}
	.st77{clip-path:url(#SVGID_156_);fill:#FEFEFE;}
	.st78{clip-path:url(#SVGID_158_);}
	.st79{clip-path:url(#SVGID_160_);fill:#FEFEFE;}
	.st80{clip-path:url(#SVGID_162_);}
	.st81{clip-path:url(#SVGID_164_);fill:#FEFEFE;}
	.st82{clip-path:url(#SVGID_166_);}
	.st83{clip-path:url(#SVGID_168_);fill:#FEFEFE;}
	.st84{clip-path:url(#SVGID_170_);}
	.st85{clip-path:url(#SVGID_172_);fill:#FEFEFE;}
	.st86{clip-path:url(#SVGID_174_);}
	.st87{clip-path:url(#SVGID_176_);fill:#FEFEFE;}
	.st88{clip-path:url(#SVGID_178_);}
	.st89{clip-path:url(#SVGID_180_);fill:#FEFEFE;}
	.st90{clip-path:url(#SVGID_182_);}
	.st91{clip-path:url(#SVGID_184_);fill:#FEFEFE;}
	.st92{clip-path:url(#SVGID_186_);}
	.st93{clip-path:url(#SVGID_188_);fill:#FEFEFE;}
	.st94{clip-path:url(#SVGID_190_);}
	.st95{clip-path:url(#SVGID_192_);fill:#FEFEFE;}
	.st96{clip-path:url(#SVGID_194_);}
	.st97{clip-path:url(#SVGID_196_);fill:#FEFEFE;}
	.st98{clip-path:url(#SVGID_198_);}
	.st99{clip-path:url(#SVGID_200_);fill:#FEFEFE;}
	.st100{clip-path:url(#SVGID_202_);}
	.st101{clip-path:url(#SVGID_204_);fill:#FEFEFE;}
	.st102{clip-path:url(#SVGID_206_);}
	.st103{clip-path:url(#SVGID_208_);fill:#FEFEFE;}
	.st104{clip-path:url(#SVGID_210_);}
	.st105{clip-path:url(#SVGID_212_);fill:#FEFEFE;}
	.st106{clip-path:url(#SVGID_214_);}
	.st107{clip-path:url(#SVGID_216_);fill:#FEFEFE;}
	.st108{clip-path:url(#SVGID_218_);}
	.st109{clip-path:url(#SVGID_220_);fill:#FEFEFE;}
	.st110{clip-path:url(#SVGID_222_);}
	.st111{clip-path:url(#SVGID_224_);fill:#FEFEFE;}
	.st112{clip-path:url(#SVGID_226_);}
	.st113{clip-path:url(#SVGID_228_);fill:#FEFEFE;}
	.st114{clip-path:url(#SVGID_230_);}
	.st115{clip-path:url(#SVGID_232_);fill:#FEFEFE;}
	.st116{clip-path:url(#SVGID_234_);}
	.st117{clip-path:url(#SVGID_236_);fill:#FEFEFE;}
	.st118{clip-path:url(#SVGID_238_);}
	.st119{clip-path:url(#SVGID_240_);fill:#FEFEFE;}
	.st120{clip-path:url(#SVGID_242_);}
	.st121{clip-path:url(#SVGID_244_);fill:#FEFEFE;}
	.st122{clip-path:url(#SVGID_246_);}
	.st123{clip-path:url(#SVGID_248_);fill:#FEFEFE;}
</style>
<g>
	<g>
		<defs>
			<path id="SVGID_1_" d="M44.7,59.2c7.8,0.5,10-3.8,10-6.2c0-2.2-1.1-3.8-3-4.8c-1.5-0.8-4.2-1.1-5.8-1.1l-9.6,0v0.1
				c1.6,1,1.4,2.9,1.4,4.6l0,12.2c0,1.7,0.2,3.6-1.4,4.6v0.1l8.7,0v-0.1c-1.6-1-1.4-2.9-1.4-4.6l0-4.6v-1.7l0-7.4
				c0,0,4.7-0.8,4.5,3.9C48,58.3,44.7,59.2,44.7,59.2"/>
		</defs>
		<clipPath id="SVGID_2_">
			<use xlink:href="#SVGID_1_"  style="overflow:visible;"/>
		</clipPath>
		<g class="st0">
			<defs>
				<rect id="SVGID_3_" width="179" height="99"/>
			</defs>
			<clipPath id="SVGID_4_">
				<use xlink:href="#SVGID_3_"  style="overflow:visible;"/>
			</clipPath>
			<rect x="31.3" y="42.1" class="st1" width="28.4" height="31.6"/>
		</g>
	</g>
	<g>
		<defs>
			<path id="SVGID_5_" d="M118,52.5c0-1.9,0.1-3.3,1.6-4.6v-0.1l-6.9,0l0,0.1c1.5,1.3,1.6,2.7,1.6,4.6l0,8.3l-11-12.9v-0.1l-7.5-0.1
				v0.1c1.9,1.9,2.1,2.8,2.1,5.3l-0.1,11c0,1.9-0.1,3.3-1.6,4.6l0,0.1l6.9,0v-0.1c-1.5-1.3-1.6-2.7-1.6-4.6l0.1-8.4h0.1l6.9,8.2
				c1.8,2.1,2.4,3.1,5.1,4.4c1.1,0.5,3.1,1.3,4.3,1.3L118,52.5z"/>
		</defs>
		<clipPath id="SVGID_6_">
			<use xlink:href="#SVGID_5_"  style="overflow:visible;"/>
		</clipPath>
		<g class="st2">
			<defs>
				<rect id="SVGID_7_" width="179" height="99"/>
			</defs>
			<clipPath id="SVGID_8_">
				<use xlink:href="#SVGID_7_"  style="overflow:visible;"/>
			</clipPath>
			<rect x="90.7" y="42.6" class="st3" width="33.9" height="31.9"/>
		</g>
	</g>
	<g>
		<defs>
			<path id="SVGID_9_" d="M91.2,52.5c0-1.9,0.1-3.3,1.6-4.6l0-0.1l-6.9,0v0.1c1.5,1.3,1.6,2.7,1.6,4.6l0,8.3l-11-12.9l0-0.1
				l-7.5-0.1v0.1c1.9,1.9,2.1,2.8,2.1,5.3l-0.1,11c0,1.9-0.1,3.3-1.6,4.6v0.1l7,0v-0.1c-1.5-1.3-1.6-2.7-1.6-4.6l0-8.4h0.1l6.9,8.2
				c1.7,2.1,2.4,3.1,5.1,4.4c1.1,0.5,3.1,1.3,4.3,1.3L91.2,52.5z"/>
		</defs>
		<clipPath id="SVGID_10_">
			<use xlink:href="#SVGID_9_"  style="overflow:visible;"/>
		</clipPath>
		<g class="st4">
			<defs>
				<rect id="SVGID_11_" width="179" height="99"/>
			</defs>
			<clipPath id="SVGID_12_">
				<use xlink:href="#SVGID_11_"  style="overflow:visible;"/>
			</clipPath>
			<rect x="63.9" y="42.6" class="st5" width="33.9" height="31.9"/>
		</g>
	</g>
	<g>
		<defs>
			<path id="SVGID_13_" d="M133.2,59.4l-4.9,0l2.3-6.3h0L133.2,59.4z M134.4,62.4l1.2,3.1c0.2,0.5,0.3,0.7,0.3,1.2
				c0,1-0.6,1.5-1.5,2v0.1l10.8,0v0v-0.1c-2-1.7-2.2-2.4-3.1-4.5l-6.8-16.5l-8.7,0v0.1c0.7,0.4,1.4,1,1.4,1.9c0,0.7-0.6,1.9-0.8,2.6
				L122.2,65c-0.6,1.6-1.1,2.6-2.5,3.7l0,0.1l7.3,0v-0.1c-0.6-0.5-1.3-0.9-1.3-1.8c0-0.7,0.4-1.7,0.6-2.3l0.9-2.2L134.4,62.4z"/>
		</defs>
		<clipPath id="SVGID_14_">
			<use xlink:href="#SVGID_13_"  style="overflow:visible;"/>
		</clipPath>
		<g class="st6">
			<defs>
				<rect id="SVGID_15_" width="179" height="99"/>
			</defs>
			<clipPath id="SVGID_16_">
				<use xlink:href="#SVGID_15_"  style="overflow:visible;"/>
			</clipPath>
			<rect x="114.8" y="42.7" class="st7" width="35.4" height="31.1"/>
		</g>
	</g>
	<g>
		<defs>
			<path id="SVGID_17_" d="M65.7,68.6L65.7,68.6c-1.6-1.1-1.3-3-1.3-4.8l0.1-11.6c0-1.7-0.2-3.6,1.4-4.7v-0.1L57,47.6l0,0.1
				c1.6,1,1.3,2.9,1.3,4.7l-0.1,11.6c0,1.7,0.2,3.6-1.4,4.7v0.1L65.7,68.6z"/>
		</defs>
		<clipPath id="SVGID_18_">
			<use xlink:href="#SVGID_17_"  style="overflow:visible;"/>
		</clipPath>
		<g class="st8">
			<defs>
				<rect id="SVGID_19_" width="179" height="99"/>
			</defs>
			<clipPath id="SVGID_20_">
				<use xlink:href="#SVGID_19_"  style="overflow:visible;"/>
			</clipPath>
			<rect x="51.7" y="42.5" class="st9" width="19.1" height="31.2"/>
		</g>
	</g>
	<g>
		<defs>
			<path id="SVGID_21_" d="M90.5,6.1c0.1,0,0.8,0.3,0.8,0.7c0,0.2-0.1,0.4-0.2,0.7C90.9,7.9,91,8.6,91,8.8c0,0.2-0.6,1.1-0.7,2
				c-0.2,0.1,0,0.9-0.3,0.9c-0.2,0-0.5-0.6-0.5-0.8c0-0.3,0.1-2.3,0.1-3.4c0-0.2,0.2-0.9,0.3-1.2C90.1,6.2,90.3,6.1,90.5,6.1"/>
		</defs>
		<clipPath id="SVGID_22_">
			<use xlink:href="#SVGID_21_"  style="overflow:visible;"/>
		</clipPath>
		<g class="st10">
			<defs>
				<rect id="SVGID_23_" width="179" height="99"/>
			</defs>
			<clipPath id="SVGID_24_">
				<use xlink:href="#SVGID_23_"  style="overflow:visible;"/>
			</clipPath>
			<rect x="84.6" y="1.1" class="st11" width="11.8" height="15.6"/>
		</g>
	</g>
	<g>
		<defs>
			<path id="SVGID_25_" d="M85.2,6.5c0.7,0,0.9,1.7,0.9,1.9c0.2,0.6,0.1,1.3,0.4,1.8c0.1,0.3,0.4,0.9,0.4,1.1c0,0.3,0.1,0.7-0.2,0.7
				c-0.2,0-0.8-0.7-0.9-0.9c-0.5-1.3-1.2-2-1.3-3.3c0-0.2-0.2-0.3-0.2-0.5C84.4,6.8,85.1,6.5,85.2,6.5"/>
		</defs>
		<clipPath id="SVGID_26_">
			<use xlink:href="#SVGID_25_"  style="overflow:visible;"/>
		</clipPath>
		<g class="st12">
			<defs>
				<rect id="SVGID_27_" width="179" height="99"/>
			</defs>
			<clipPath id="SVGID_28_">
				<use xlink:href="#SVGID_27_"  style="overflow:visible;"/>
			</clipPath>
			<rect x="79.4" y="1.5" class="st13" width="12.6" height="15.5"/>
		</g>
	</g>
	<g>
		<defs>
			<path id="SVGID_29_" d="M95.1,7.5c0.4,0.1,0.7,0.2,1.1,0.3c0,0.1,0.1,0,0.1,0.3c0,0.2-1.1,2.6-1.6,3.9c-0.1,0.3-0.5,0.7-0.7,0.7
				c-0.4,0-0.3-0.7-0.3-0.7c0-0.2,0.6-1.6,0.6-1.9C94.3,9.6,94.7,7.9,95.1,7.5"/>
		</defs>
		<clipPath id="SVGID_30_">
			<use xlink:href="#SVGID_29_"  style="overflow:visible;"/>
		</clipPath>
		<g class="st14">
			<defs>
				<rect id="SVGID_31_" width="179" height="99"/>
			</defs>
			<clipPath id="SVGID_32_">
				<use xlink:href="#SVGID_31_"  style="overflow:visible;"/>
			</clipPath>
			<rect x="88.7" y="2.5" class="st15" width="12.6" height="15"/>
		</g>
	</g>
	<g>
		<defs>
			<path id="SVGID_33_" d="M88.2,10.2c0.1,0,0.3,0.1,0.4,0.1c0.2,0.3,0.4,0.6,0.4,0.8c0,0.1-0.4,0.7-0.6,0.7c-0.6,0-0.6-0.5-0.6-0.7
				C87.8,10.7,87.9,10.4,88.2,10.2"/>
		</defs>
		<clipPath id="SVGID_34_">
			<use xlink:href="#SVGID_33_"  style="overflow:visible;"/>
		</clipPath>
		<g class="st16">
			<defs>
				<rect id="SVGID_35_" width="179" height="99"/>
			</defs>
			<clipPath id="SVGID_36_">
				<use xlink:href="#SVGID_35_"  style="overflow:visible;"/>
			</clipPath>
			<rect x="82.8" y="5.2" class="st17" width="11.2" height="11.6"/>
		</g>
	</g>
	<g>
		<defs>
			<path id="SVGID_37_" d="M91.9,10.2c0.3,0,0.9,0.9,0.9,1.1c0,0.5-0.4,0.6-0.6,0.6c-0.8,0-0.8-0.5-0.8-0.9
				C91.4,10.9,91.4,10.2,91.9,10.2"/>
		</defs>
		<clipPath id="SVGID_38_">
			<use xlink:href="#SVGID_37_"  style="overflow:visible;"/>
		</clipPath>
		<g class="st18">
			<defs>
				<rect id="SVGID_39_" width="179" height="99"/>
			</defs>
			<clipPath id="SVGID_40_">
				<use xlink:href="#SVGID_39_"  style="overflow:visible;"/>
			</clipPath>
			<rect x="86.4" y="5.2" class="st19" width="11.4" height="11.7"/>
		</g>
	</g>
	<g>
		<defs>
			<path id="SVGID_41_" d="M80.7,8.9c1,0,1.3,1.6,1.8,2.3c0.2,0.4,0.5,1.1,0.5,1.3c0,0.3,0.4,0.9-0.1,0.9c-0.2,0-0.8-0.8-0.9-0.8
				c-0.5-1.2-1.5-1.8-2.3-2.9C79.8,9.6,80.4,8.9,80.7,8.9"/>
		</defs>
		<clipPath id="SVGID_42_">
			<use xlink:href="#SVGID_41_"  style="overflow:visible;"/>
		</clipPath>
		<g class="st20">
			<defs>
				<rect id="SVGID_43_" width="179" height="99"/>
			</defs>
			<clipPath id="SVGID_44_">
				<use xlink:href="#SVGID_43_"  style="overflow:visible;"/>
			</clipPath>
			<rect x="74.8" y="3.9" class="st21" width="13.4" height="14.5"/>
		</g>
	</g>
	<g>
		<defs>
			<path id="SVGID_45_" d="M84.5,11.2c0.3,0.2,0.8,0.6,0.8,0.8c0,0.4-0.5,0.8-0.8,0.8c-0.6,0-0.6-0.5-0.6-0.7
				C84,11.8,84,11.6,84.5,11.2"/>
		</defs>
		<clipPath id="SVGID_46_">
			<use xlink:href="#SVGID_45_"  style="overflow:visible;"/>
		</clipPath>
		<g class="st22">
			<defs>
				<rect id="SVGID_47_" width="179" height="99"/>
			</defs>
			<clipPath id="SVGID_48_">
				<use xlink:href="#SVGID_47_"  style="overflow:visible;"/>
			</clipPath>
			<rect x="79" y="6.2" class="st23" width="11.3" height="11.7"/>
		</g>
	</g>
	<g>
		<defs>
			<path id="SVGID_49_" d="M81,13.4c0.7,0.2,0.9,0.2,0.9,0.8c0,0.4-0.2,0.9-0.7,0.9c-0.3,0-0.7-0.7-0.7-0.8
				C80.6,14,80.9,13.6,81,13.4"/>
		</defs>
		<clipPath id="SVGID_50_">
			<use xlink:href="#SVGID_49_"  style="overflow:visible;"/>
		</clipPath>
		<g class="st24">
			<defs>
				<rect id="SVGID_51_" width="179" height="99"/>
			</defs>
			<clipPath id="SVGID_52_">
				<use xlink:href="#SVGID_51_"  style="overflow:visible;"/>
			</clipPath>
			<rect x="75.6" y="8.4" class="st25" width="11.3" height="11.7"/>
		</g>
	</g>
	<g>
		<defs>
			<path id="SVGID_53_" d="M76.2,12.9c0.6-0.4,2.4,1.1,3.5,1.8c0.2,0.1,0.6,0.8,0.6,1c0,0.5-0.3,0.1-0.5,0.1c-0.1,0-2-0.8-2.3-1
				c-0.4-0.2-0.9-0.3-1.3-0.6c-0.2-0.1-0.4-0.5-0.4-0.7C75.9,13.4,76,13.1,76.2,12.9"/>
		</defs>
		<clipPath id="SVGID_54_">
			<use xlink:href="#SVGID_53_"  style="overflow:visible;"/>
		</clipPath>
		<g class="st26">
			<defs>
				<rect id="SVGID_55_" width="179" height="99"/>
			</defs>
			<clipPath id="SVGID_56_">
				<use xlink:href="#SVGID_55_"  style="overflow:visible;"/>
			</clipPath>
			<rect x="70.9" y="7.9" class="st27" width="14.4" height="13.1"/>
		</g>
	</g>
	<g>
		<defs>
			<path id="SVGID_57_" d="M89.5,12.9c1.3,0,2,0.1,3.2,0.5c0.6,0.2,0.9,0.3,0.9,0.8c0,0.2-0.1,0.4-0.1,0.6c-0.2,0-0.3,0.2-0.5,0.2
				c-0.2,0-1.6-0.3-1.8-0.3h-2.4c-0.5,0-1.9,0.6-2.2,0.8c-1.6,0.8-2.6,1.7-3.5,2.7c-0.6,0.7-1,1.6-1.3,2.3c-0.2,0.3-0.4,0.6-0.4,0.8
				c0,0.2,0,0.3,0,0.5c0,0.2-0.1,0.4-0.1,0.4c-0.1,0.5-0.1,1.3-0.1,1.5c0,1.6-0.1,1.4,0.7,3.4c0,0.1-0.1,0.3,0,0.4c0,0,0,0,0.1-0.1
				c0,0.1,0,0.2,0,0.4s1.2,1.6,1.8,2.3c0.4,0.2,0.7,0.7,1.1,1c0.5,0.5,1.1,0.8,1.7,1c1.3,0.3,3.4,0.8,4.7,0.8c0.2,0,0.5,0,1.8-0.1
				c0.5-0.1,1.3-0.4,1.8-0.7c4-2.7,4.6-4.8,4.6-7.8c0-0.2,0.1-0.3,0-0.8c-0.1-0.4-0.3-1-0.5-1.4c0-0.1-0.2-0.2-0.2-0.5
				c0-0.5,1.1-0.8,1.2-0.8c0.9,0,1.3,3.4,1.3,3.8c0,1.6-0.6,3-1,4.3c-0.8,0.8-1.4,1.6-2,2.4c-0.4,0.4-0.9,0.8-1.5,1.2
				c-0.3,0.2-0.9,0.8-1.4,1c-0.8,0.3-2.5,0.7-2.7,0.7l-3.9-0.2c-1.7-0.3-4.1-1.1-5.2-2.1c-0.1-0.1-0.5-0.2-0.6-0.3
				c-2.6-2.5-3.7-5.4-3.7-8.2c0-2.7,0.6-4.3,2.7-7.4c0.5-0.8,1.8-1.4,2.5-1.8C86.1,13.6,88,12.9,89.5,12.9"/>
		</defs>
		<clipPath id="SVGID_58_">
			<use xlink:href="#SVGID_57_"  style="overflow:visible;"/>
		</clipPath>
		<g class="st28">
			<defs>
				<rect id="SVGID_59_" width="179" height="99"/>
			</defs>
			<clipPath id="SVGID_60_">
				<use xlink:href="#SVGID_59_"  style="overflow:visible;"/>
			</clipPath>
			<rect x="74.4" y="7.9" class="st29" width="32" height="31.6"/>
		</g>
	</g>
	<g>
		<defs>
			<path id="SVGID_61_" d="M78.3,16.7h0.4c0.2,0.4,0.7,0.8,0.7,1.1c0,0.3-0.3,0.5-0.6,0.5c-0.5,0-0.8-0.5-0.8-0.8
				C78,17.2,78.1,17,78.3,16.7"/>
		</defs>
		<clipPath id="SVGID_62_">
			<use xlink:href="#SVGID_61_"  style="overflow:visible;"/>
		</clipPath>
		<g class="st30">
			<defs>
				<rect id="SVGID_63_" width="179" height="99"/>
			</defs>
			<clipPath id="SVGID_64_">
				<use xlink:href="#SVGID_63_"  style="overflow:visible;"/>
			</clipPath>
			<rect x="73" y="11.7" class="st31" width="11.4" height="11.6"/>
		</g>
	</g>
	<g>
		<defs>
			<path id="SVGID_65_" d="M90.2,16.3c0.2,0,0.6-0.1,1.9,0c0.4,0,0.7,0.2,0.7,0.7c0,0.2-0.4,2.8-1.2,4.5c-0.1,0.3-0.4,1.4-0.4,1.6
				c0,0-0.1,0.4,0,0.6c0.2,0.3,0.6,0,0.8,0c0.1,0,1.2-0.2,2.2-0.7c0.8-0.4,3-1,3.1-1c1,0,1.1,2.2,1.1,2.4c0,0.2-0.1,1.6-0.4,2.3
				c-0.9,1.8-2.1,3.9-4.2,4.5c-1,0.2-2.9,0.3-3.1,0.3c-0.2,0-1.7-0.1-2.6-0.2c-0.4,0-0.7-0.4-1.1-0.6c-1.4-0.7-2.7-2.3-3.3-3.8
				c-0.1-0.3-0.4-0.6-0.6-1c-0.3-0.7-0.4-1.9-0.4-2.1c0-0.2,0.1-0.5,0.1-0.8C83.2,18.5,86.2,16.3,90.2,16.3"/>
		</defs>
		<clipPath id="SVGID_66_">
			<use xlink:href="#SVGID_65_"  style="overflow:visible;"/>
		</clipPath>
		<g class="st32">
			<defs>
				<rect id="SVGID_67_" width="179" height="99"/>
			</defs>
			<clipPath id="SVGID_68_">
				<use xlink:href="#SVGID_67_"  style="overflow:visible;"/>
			</clipPath>
			<rect x="77.7" y="11.2" class="st33" width="25.7" height="25.2"/>
		</g>
	</g>
	<g>
		<defs>
			<path id="SVGID_69_" d="M73.9,18.1c1.7,0,3.7,0.6,4.9,1.4c-0.1,0.3-0.6,0.2-0.7,0.5c-0.4,0-0.8,0.1-1.2,0c-1-0.2-2.1-0.4-3-0.7
				c-0.1-0.1-0.2-0.4-0.2-0.6C73.7,18.4,73.9,18.3,73.9,18.1"/>
		</defs>
		<clipPath id="SVGID_70_">
			<use xlink:href="#SVGID_69_"  style="overflow:visible;"/>
		</clipPath>
		<g class="st34">
			<defs>
				<rect id="SVGID_71_" width="179" height="99"/>
			</defs>
			<clipPath id="SVGID_72_">
				<use xlink:href="#SVGID_71_"  style="overflow:visible;"/>
			</clipPath>
			<rect x="68.7" y="13.1" class="st35" width="15.1" height="11.9"/>
		</g>
	</g>
	<g>
		<defs>
			<path id="SVGID_73_" d="M77.4,21.3c0.4,0,0.8,0.6,0.8,0.8c0,0.6-0.9,0.7-1,0.7c-0.4,0-0.4-0.7-0.4-0.8
				C76.9,21.6,77,21.3,77.4,21.3"/>
		</defs>
		<clipPath id="SVGID_74_">
			<use xlink:href="#SVGID_73_"  style="overflow:visible;"/>
		</clipPath>
		<g class="st36">
			<defs>
				<rect id="SVGID_75_" width="179" height="99"/>
			</defs>
			<clipPath id="SVGID_76_">
				<use xlink:href="#SVGID_75_"  style="overflow:visible;"/>
			</clipPath>
			<rect x="71.9" y="16.3" class="st37" width="11.4" height="11.5"/>
		</g>
	</g>
	<g>
		<defs>
			<path id="SVGID_77_" d="M103,22c0.3,0,0.9,0.3,0.9,0.6c0,0.5-0.6,1-1,1c-0.3,0-0.6-0.6-0.6-0.7C102.3,22.5,102.5,22,103,22"/>
		</defs>
		<clipPath id="SVGID_78_">
			<use xlink:href="#SVGID_77_"  style="overflow:visible;"/>
		</clipPath>
		<g class="st38">
			<defs>
				<rect id="SVGID_79_" width="179" height="99"/>
			</defs>
			<clipPath id="SVGID_80_">
				<use xlink:href="#SVGID_79_"  style="overflow:visible;"/>
			</clipPath>
			<rect x="97.3" y="17" class="st39" width="11.6" height="11.6"/>
		</g>
	</g>
	<g>
		<defs>
			<path id="SVGID_81_" d="M77,24l1.2,0.3c0.1,0.5-0.4,0.2-0.5,0.7c-0.3,0-1.4,0.2-1.6,0.2c-0.2,0-1,0.2-1.2,0.2H73
				c-0.2-0.2-0.4-0.7-0.4-0.8c0-0.2,0.1-0.6,0.4-0.6c0.2,0,1.2,0.2,1.4,0.2C74.6,24.1,76.8,24,77,24"/>
		</defs>
		<clipPath id="SVGID_82_">
			<use xlink:href="#SVGID_81_"  style="overflow:visible;"/>
		</clipPath>
		<g class="st40">
			<defs>
				<rect id="SVGID_83_" width="179" height="99"/>
			</defs>
			<clipPath id="SVGID_84_">
				<use xlink:href="#SVGID_83_"  style="overflow:visible;"/>
			</clipPath>
			<rect x="67.6" y="19" class="st41" width="15.6" height="11.4"/>
		</g>
	</g>
	<g>
		<defs>
			<path id="SVGID_85_" d="M103.8,24.4c2.1,0,1.5-0.3,3.6-0.3c0.1,0.1,0.3,0.6,0.4,0.3c0,0,0.1,0.5,0,0.8c-0.2,0.7-1.8,0.4-1.8,0.4
				c-0.2,0-1.7-0.1-2.5-0.2c-0.2,0-0.8-0.4-0.8-0.6C102.7,24.5,103.1,24.4,103.8,24.4"/>
		</defs>
		<clipPath id="SVGID_86_">
			<use xlink:href="#SVGID_85_"  style="overflow:visible;"/>
		</clipPath>
		<g class="st42">
			<defs>
				<rect id="SVGID_87_" width="179" height="99"/>
			</defs>
			<clipPath id="SVGID_88_">
				<use xlink:href="#SVGID_87_"  style="overflow:visible;"/>
			</clipPath>
			<rect x="97.7" y="19" class="st43" width="15.2" height="11.6"/>
		</g>
	</g>
	<g>
		<defs>
			<path id="SVGID_89_" d="M77.8,26.2c0.1,0,0.8,0.7,0.8,0.9c0,0.5-0.5,0.8-0.8,0.8c-0.2,0-0.4-0.1-0.6-0.1
				C77.3,27.5,77,26.2,77.8,26.2"/>
		</defs>
		<clipPath id="SVGID_90_">
			<use xlink:href="#SVGID_89_"  style="overflow:visible;"/>
		</clipPath>
		<g class="st44">
			<defs>
				<rect id="SVGID_91_" width="179" height="99"/>
			</defs>
			<clipPath id="SVGID_92_">
				<use xlink:href="#SVGID_91_"  style="overflow:visible;"/>
			</clipPath>
			<rect x="72.2" y="21.2" class="st45" width="11.4" height="11.7"/>
		</g>
	</g>
	<g>
		<defs>
			<path id="SVGID_93_" d="M102.7,26.5h0.7c0.3,0.1,0.5,0.3,0.5,0.6c0,0.2,0.1,0.3,0.2,0.4c-0.5,0.2-0.8,0.5-1,0.5
				c-0.5,0-0.6-0.5-0.6-0.8C102.4,26.9,102.6,26.7,102.7,26.5"/>
		</defs>
		<clipPath id="SVGID_94_">
			<use xlink:href="#SVGID_93_"  style="overflow:visible;"/>
		</clipPath>
		<g class="st46">
			<defs>
				<rect id="SVGID_95_" width="179" height="99"/>
			</defs>
			<clipPath id="SVGID_96_">
				<use xlink:href="#SVGID_95_"  style="overflow:visible;"/>
			</clipPath>
			<rect x="97.4" y="21.5" class="st47" width="11.7" height="11.4"/>
		</g>
	</g>
	<g>
		<defs>
			<path id="SVGID_97_" d="M78,29c0.6-0.1,1.2-0.5,1.3-0.1c0.1,0.4-1.3,1.1-2.2,1.6c-0.5,0.3-1,0.5-1.4,0.7
				c-0.3,0.1-0.5,0.4-0.7,0.5c-0.4,0.1-0.7-0.5-1.1-0.9c0.2-0.2,0.3-0.4,0.5-0.5C75.4,29.8,77.8,29.1,78,29"/>
		</defs>
		<clipPath id="SVGID_98_">
			<use xlink:href="#SVGID_97_"  style="overflow:visible;"/>
		</clipPath>
		<g class="st48">
			<defs>
				<rect id="SVGID_99_" width="179" height="99"/>
			</defs>
			<clipPath id="SVGID_100_">
				<use xlink:href="#SVGID_99_"  style="overflow:visible;"/>
			</clipPath>
			<rect x="68.8" y="23.7" class="st49" width="15.4" height="12.9"/>
		</g>
	</g>
	<g>
		<defs>
			<path id="SVGID_101_" d="M102,28.9c0.2,0,1.7,0.1,2.1,0.3c0.3,0.1,0.8,0.2,1.2,0.4c0.2,0,0.8,0.3,1.1,0.6c0.1,0.1,0,0.4,0.2,0.7
				c-0.1,0.2-0.5,0.7-0.7,0.7c-0.2,0-0.6-0.3-0.8-0.5c-1-0.8-1.6-0.9-2.6-1.3c-0.4-0.2-0.8-0.3-0.8-0.7
				C101.7,29,101.7,28.9,102,28.9"/>
		</defs>
		<clipPath id="SVGID_102_">
			<use xlink:href="#SVGID_101_"  style="overflow:visible;"/>
		</clipPath>
		<g class="st50">
			<defs>
				<rect id="SVGID_103_" width="179" height="99"/>
			</defs>
			<clipPath id="SVGID_104_">
				<use xlink:href="#SVGID_103_"  style="overflow:visible;"/>
			</clipPath>
			<rect x="96.7" y="23.9" class="st51" width="14.9" height="12.7"/>
		</g>
	</g>
	<g>
		<defs>
			<path id="SVGID_105_" d="M79.7,30.3c0.2,0,0.7,0.7,0.7,0.9c0,0.5-0.7,0.8-0.9,0.8c-0.4,0-0.6-0.5-0.6-0.8
				C78.9,30.9,79.2,30.3,79.7,30.3"/>
		</defs>
		<clipPath id="SVGID_106_">
			<use xlink:href="#SVGID_105_"  style="overflow:visible;"/>
		</clipPath>
		<g class="st52">
			<defs>
				<rect id="SVGID_107_" width="179" height="99"/>
			</defs>
			<clipPath id="SVGID_108_">
				<use xlink:href="#SVGID_107_"  style="overflow:visible;"/>
			</clipPath>
			<rect x="73.9" y="25.3" class="st53" width="11.5" height="11.7"/>
		</g>
	</g>
	<g>
		<defs>
			<path id="SVGID_109_" d="M101.5,30.6c0.2,0,0.2,0.1,0.4,0.1c0.2,0,0.3,0.3,0.4,0.4c0,0.4-0.4,0.9-0.8,0.9c-0.2,0-0.2-0.2-0.4-0.1
				c-0.1-0.1-0.2-0.4-0.2-0.6C100.8,31.1,101.1,30.6,101.5,30.6"/>
		</defs>
		<clipPath id="SVGID_110_">
			<use xlink:href="#SVGID_109_"  style="overflow:visible;"/>
		</clipPath>
		<g class="st54">
			<defs>
				<rect id="SVGID_111_" width="179" height="99"/>
			</defs>
			<clipPath id="SVGID_112_">
				<use xlink:href="#SVGID_111_"  style="overflow:visible;"/>
			</clipPath>
			<rect x="95.8" y="25.6" class="st55" width="11.4" height="11.5"/>
		</g>
	</g>
	<g>
		<defs>
			<path id="SVGID_113_" d="M103.7,35.7c0,0.2-0.3,0.9-0.7,0.7c-0.9-0.8-2.1-1.9-3-2.8c-0.1-0.1-0.5-0.9-0.4-1.1
				c0.1-0.4,1.4,0.9,2.2,1.3C102.6,34.1,103.6,35.2,103.7,35.7"/>
		</defs>
		<clipPath id="SVGID_114_">
			<use xlink:href="#SVGID_113_"  style="overflow:visible;"/>
		</clipPath>
		<g class="st56">
			<defs>
				<rect id="SVGID_115_" width="179" height="99"/>
			</defs>
			<clipPath id="SVGID_116_">
				<use xlink:href="#SVGID_115_"  style="overflow:visible;"/>
			</clipPath>
			<rect x="94.6" y="27.5" class="st57" width="14.1" height="14"/>
		</g>
	</g>
	<g>
		<defs>
			<path id="SVGID_117_" d="M98.1,33.7h0.3c0.3,0.5,0.7,0.6,0.7,1c0,0.3-0.4,0.6-0.5,0.6c-0.5,0-0.8-0.7-0.8-0.8
				C97.8,34.2,98,34,98.1,33.7"/>
		</defs>
		<clipPath id="SVGID_118_">
			<use xlink:href="#SVGID_117_"  style="overflow:visible;"/>
		</clipPath>
		<g class="st58">
			<defs>
				<rect id="SVGID_119_" width="179" height="99"/>
			</defs>
			<clipPath id="SVGID_120_">
				<use xlink:href="#SVGID_119_"  style="overflow:visible;"/>
			</clipPath>
			<rect x="92.8" y="28.7" class="st59" width="11.3" height="11.6"/>
		</g>
	</g>
	<g>
		<defs>
			<path id="SVGID_121_" d="M97,35.4c0.2,0,0.6,1,1.1,1.8c0.6,0.8,1.4,1.6,1.4,1.7c0,0.5-0.9,0.9-1.3,0.7c0,0-0.8-0.9-1-1.6
				c-0.2-1.1-0.8-1.8-0.9-1.9c-0.1-0.4,0-1.1,0.1-1.3C96.6,34.7,96.8,35.4,97,35.4"/>
		</defs>
		<clipPath id="SVGID_122_">
			<use xlink:href="#SVGID_121_"  style="overflow:visible;"/>
		</clipPath>
		<g class="st60">
			<defs>
				<rect id="SVGID_123_" width="179" height="99"/>
			</defs>
			<clipPath id="SVGID_124_">
				<use xlink:href="#SVGID_123_"  style="overflow:visible;"/>
			</clipPath>
			<rect x="91.3" y="29.8" class="st61" width="13.2" height="14.9"/>
		</g>
	</g>
	<g>
		<defs>
			<path id="SVGID_125_" d="M81.9,33.4h0.5c0.2,0,0.6,0.5,0.6,0.7c0,0.5-0.4,1-0.6,1c-0.6,0-0.7-0.7-0.7-0.8
				C81.6,34,81.8,33.7,81.9,33.4"/>
		</defs>
		<clipPath id="SVGID_126_">
			<use xlink:href="#SVGID_125_"  style="overflow:visible;"/>
		</clipPath>
		<g class="st62">
			<defs>
				<rect id="SVGID_127_" width="179" height="99"/>
			</defs>
			<clipPath id="SVGID_128_">
				<use xlink:href="#SVGID_127_"  style="overflow:visible;"/>
			</clipPath>
			<rect x="76.6" y="28.4" class="st63" width="11.3" height="11.7"/>
		</g>
	</g>
	<g>
		<defs>
			<path id="SVGID_129_" d="M92.2,36c0.7-0.1,0.5,0.7,0.7,1.2c0.4,1,0.6,1.6,0.8,2.6c0,0.2,0.3,0.5,0.3,0.7c0,0.5-0.5,0.7-0.8,0.7
				c-0.2,0-0.6-0.2-0.6-0.4c0-0.5-0.3-0.9-0.2-1.7c0.1-0.8-0.3-1.4-0.3-2C92,37.1,92.1,36,92.2,36"/>
		</defs>
		<clipPath id="SVGID_130_">
			<use xlink:href="#SVGID_129_"  style="overflow:visible;"/>
		</clipPath>
		<g class="st64">
			<defs>
				<rect id="SVGID_131_" width="179" height="99"/>
			</defs>
			<clipPath id="SVGID_132_">
				<use xlink:href="#SVGID_131_"  style="overflow:visible;"/>
			</clipPath>
			<rect x="87" y="31" class="st65" width="12" height="15.3"/>
		</g>
	</g>
	<g>
		<defs>
			<path id="SVGID_133_" d="M94.4,35.6c0.3,0.1,0.9,0.4,0.9,0.8c0,0.4-0.3,0.7-0.7,0.7c-0.4,0-0.7-0.5-0.7-0.8
				C94,36,94.2,35.7,94.4,35.6"/>
		</defs>
		<clipPath id="SVGID_134_">
			<use xlink:href="#SVGID_133_"  style="overflow:visible;"/>
		</clipPath>
		<g class="st66">
			<defs>
				<rect id="SVGID_135_" width="179" height="99"/>
			</defs>
			<clipPath id="SVGID_136_">
				<use xlink:href="#SVGID_135_"  style="overflow:visible;"/>
			</clipPath>
			<rect x="89" y="30.6" class="st67" width="11.3" height="11.5"/>
		</g>
	</g>
	<g>
		<defs>
			<path id="SVGID_137_" d="M86.1,35.3c0.5,0,0.8,0.2,0.8,0.7c0,0.2-0.3,0.9-0.8,0.9c-0.4,0-0.6-0.7-0.6-0.9
				C85.5,35.6,85.7,35.3,86.1,35.3"/>
		</defs>
		<clipPath id="SVGID_138_">
			<use xlink:href="#SVGID_137_"  style="overflow:visible;"/>
		</clipPath>
		<g class="st68">
			<defs>
				<rect id="SVGID_139_" width="179" height="99"/>
			</defs>
			<clipPath id="SVGID_140_">
				<use xlink:href="#SVGID_139_"  style="overflow:visible;"/>
			</clipPath>
			<rect x="80.5" y="30.3" class="st69" width="11.3" height="11.6"/>
		</g>
	</g>
	<g>
		<defs>
			<path id="SVGID_141_" d="M90,36c0.3,0,0.8,0.5,0.8,0.8c0,0.2-0.1,0.4-0.2,0.6h-0.3c-0.6,0-0.8-0.7-0.8-0.9
				C89.6,36.3,89.8,36,90,36"/>
		</defs>
		<clipPath id="SVGID_142_">
			<use xlink:href="#SVGID_141_"  style="overflow:visible;"/>
		</clipPath>
		<g class="st70">
			<defs>
				<rect id="SVGID_143_" width="179" height="99"/>
			</defs>
			<clipPath id="SVGID_144_">
				<use xlink:href="#SVGID_143_"  style="overflow:visible;"/>
			</clipPath>
			<rect x="84.6" y="31" class="st71" width="11.3" height="11.4"/>
		</g>
	</g>
	<g>
		<defs>
			<path id="SVGID_145_" d="M77.5,36.3c0,0-0.5-0.7-0.2-1c0.1-0.2,0.4-0.3,0.6-0.4c0.4-0.3,0.7-0.8,0.9-1c0.1-0.2,1.1-0.6,1.7-1.2
				c0.2,0,0.5-0.7,0.7-0.6c0.2,0.1,0,0.8-0.1,0.9c-0.2,0.2-1.4,1.8-2.1,2.7c-0.1,0.2-0.6,0.6-1,0.8C77.9,36.5,77.7,36.4,77.5,36.3"
				/>
		</defs>
		<clipPath id="SVGID_146_">
			<use xlink:href="#SVGID_145_"  style="overflow:visible;"/>
		</clipPath>
		<g class="st72">
			<defs>
				<rect id="SVGID_147_" width="179" height="99"/>
			</defs>
			<clipPath id="SVGID_148_">
				<use xlink:href="#SVGID_147_"  style="overflow:visible;"/>
			</clipPath>
			<rect x="72.2" y="27.1" class="st73" width="14.1" height="14.5"/>
		</g>
	</g>
	<g>
		<defs>
			<path id="SVGID_149_" d="M81.8,39.6c-0.5-0.5,0.5-1.8,0.6-2c0.3-0.6,0.8-1,1-1.6c0.2-0.3,0.3-0.9,0.4-1.1
				c0.2-0.2,0.4-0.5,0.6-0.4c0.2,0.2,0.1,1,0,1.3c-0.5,1.3-0.5,2.3-1.3,3.3c-0.1,0.1,0,0.4-0.2,0.5C82.6,39.9,81.8,39.6,81.8,39.6"
				/>
		</defs>
		<clipPath id="SVGID_150_">
			<use xlink:href="#SVGID_149_"  style="overflow:visible;"/>
		</clipPath>
		<g class="st74">
			<defs>
				<rect id="SVGID_151_" width="179" height="99"/>
			</defs>
			<clipPath id="SVGID_152_">
				<use xlink:href="#SVGID_151_"  style="overflow:visible;"/>
			</clipPath>
			<rect x="76.6" y="29.5" class="st75" width="12.8" height="15.3"/>
		</g>
	</g>
	<g>
		<defs>
			<path id="SVGID_153_" d="M87.4,40.6c-0.8-0.7,0.1-2.1,0.1-3c0.1-0.5,0.3-1.1,0.5-1.3c0.2-0.2,0.3-0.9,0.7-0.7
				c0.2,0.2-0.1,1.3,0,1.4c-0.4,1.2-0.1,2.3-0.2,3.7C88.4,40.9,87.6,40.8,87.4,40.6"/>
		</defs>
		<clipPath id="SVGID_154_">
			<use xlink:href="#SVGID_153_"  style="overflow:visible;"/>
		</clipPath>
		<g class="st76">
			<defs>
				<rect id="SVGID_155_" width="179" height="99"/>
			</defs>
			<clipPath id="SVGID_156_">
				<use xlink:href="#SVGID_155_"  style="overflow:visible;"/>
			</clipPath>
			<rect x="82.1" y="30.7" class="st77" width="11.7" height="15.2"/>
		</g>
	</g>
	<g>
		<defs>
			<path id="SVGID_157_" d="M99.2,9.6c0.2,0,0.3,0.1,0.5,0.1c0.2,0,0.4,0.4,0.5,0.5c1.2,0.5,2.3,1.5,3.3,2.6
				c0.3,0.4,0.7,0.8,0.8,1.2c0.3,0.8,0.7,1.5,0.7,2.3c-0.1,0.8-1.1,1.2-1.5,1.3c0,0-5.1,2.1-7.9,2.8c-0.5,0.1-1.2,0-1.2,0
				c-0.1-0.1-0.1-0.1-0.1-0.3c0-0.2-0.1-0.8,0.1-1.3c0.1-0.2,0.5-0.9,0.5-1.1c0.5-1.2,1.1-2.6,1.7-3.5c0.6-0.9,1-2,1.3-3.1
				C98,10.8,98.4,9.5,99.2,9.6"/>
		</defs>
		<clipPath id="SVGID_158_">
			<use xlink:href="#SVGID_157_"  style="overflow:visible;"/>
		</clipPath>
		<g class="st78">
			<defs>
				<rect id="SVGID_159_" width="179" height="99"/>
			</defs>
			<clipPath id="SVGID_160_">
				<use xlink:href="#SVGID_159_"  style="overflow:visible;"/>
			</clipPath>
			<rect x="89.2" y="4.6" class="st79" width="20.8" height="20.8"/>
		</g>
	</g>
	<g>
		<defs>
			<path id="SVGID_161_" d="M107,19.8c0,0.7-1.7,0.7-2,0.8c-0.6,0.2-1.3,0-1.8,0.3c-0.3,0-0.9,0.4-1.1,0.3c-0.3,0-0.7,0.1-0.6-0.2
				c0-0.2,0.7-0.7,1-0.8c1.3-0.5,2.1-1.1,3.4-1c0.2,0,0.3-0.2,0.5-0.2C106.8,19,107,19.8,107,19.8"/>
		</defs>
		<clipPath id="SVGID_162_">
			<use xlink:href="#SVGID_161_"  style="overflow:visible;"/>
		</clipPath>
		<g class="st80">
			<defs>
				<rect id="SVGID_163_" width="179" height="99"/>
			</defs>
			<clipPath id="SVGID_164_">
				<use xlink:href="#SVGID_163_"  style="overflow:visible;"/>
			</clipPath>
			<rect x="96.4" y="14" class="st81" width="15.6" height="12.3"/>
		</g>
	</g>
	<g>
		<defs>
			<polygon id="SVGID_165_" points="40.1,77.9 42.2,77.9 42.2,78.7 40.9,78.7 40.9,79.5 42.2,79.5 42.2,80.3 40.9,80.3 40.9,82.2 
				40.1,82.2 			"/>
		</defs>
		<clipPath id="SVGID_166_">
			<use xlink:href="#SVGID_165_"  style="overflow:visible;"/>
		</clipPath>
		<g class="st82">
			<defs>
				<rect id="SVGID_167_" width="179" height="99"/>
			</defs>
			<clipPath id="SVGID_168_">
				<use xlink:href="#SVGID_167_"  style="overflow:visible;"/>
			</clipPath>
			<rect x="35.1" y="72.9" class="st83" width="12.1" height="14.3"/>
		</g>
	</g>
	<g>
		<defs>
			<path id="SVGID_169_" d="M45.5,77.8c0.6,0,1.1,0.2,1.6,0.7c0.4,0.4,0.6,1,0.6,1.6c0,0.6-0.2,1.1-0.6,1.6
				c-0.4,0.4-0.9,0.6-1.6,0.6c-0.6,0-1.2-0.2-1.6-0.7c-0.4-0.4-0.6-1-0.6-1.6c0-0.4,0.1-0.8,0.3-1.1c0.2-0.3,0.5-0.6,0.8-0.8
				C44.7,77.9,45.1,77.8,45.5,77.8 M45.5,78.6c-0.4,0-0.7,0.1-1,0.4c-0.3,0.3-0.4,0.6-0.4,1c0,0.5,0.2,0.8,0.5,1.1
				c0.3,0.2,0.6,0.3,0.9,0.3c0.4,0,0.7-0.1,1-0.4c0.3-0.3,0.4-0.6,0.4-1c0-0.4-0.1-0.7-0.4-1C46.2,78.7,45.9,78.6,45.5,78.6"/>
		</defs>
		<clipPath id="SVGID_170_">
			<use xlink:href="#SVGID_169_"  style="overflow:visible;"/>
		</clipPath>
		<g class="st84">
			<defs>
				<rect id="SVGID_171_" width="179" height="99"/>
			</defs>
			<clipPath id="SVGID_172_">
				<use xlink:href="#SVGID_171_"  style="overflow:visible;"/>
			</clipPath>
			<rect x="38.3" y="72.8" class="st85" width="14.4" height="14.5"/>
		</g>
	</g>
	<g>
		<defs>
			<path id="SVGID_173_" d="M49.1,77.9H50c0.5,0,0.8,0,1,0.1c0.2,0.1,0.4,0.2,0.5,0.4c0.1,0.2,0.2,0.4,0.2,0.7
				c0,0.3-0.1,0.5-0.2,0.7c-0.1,0.2-0.3,0.3-0.6,0.4l1,1.9H51l-1-1.8h-0.1v1.8h-0.8V77.9z M49.9,79.6h0.3c0.3,0,0.4,0,0.5-0.1
				c0.1-0.1,0.1-0.2,0.1-0.3c0-0.1,0-0.2-0.1-0.2c0-0.1-0.1-0.1-0.2-0.1c-0.1,0-0.2,0-0.4,0h-0.2V79.6z"/>
		</defs>
		<clipPath id="SVGID_174_">
			<use xlink:href="#SVGID_173_"  style="overflow:visible;"/>
		</clipPath>
		<g class="st86">
			<defs>
				<rect id="SVGID_175_" width="179" height="99"/>
			</defs>
			<clipPath id="SVGID_176_">
				<use xlink:href="#SVGID_175_"  style="overflow:visible;"/>
			</clipPath>
			<rect x="44.1" y="72.9" class="st87" width="12.7" height="14.3"/>
		</g>
	</g>
	<g>
		<defs>
			<polygon id="SVGID_177_" points="53.5,77.9 54.3,77.9 55.3,80.9 56.3,77.9 57.1,77.9 57.8,82.2 57,82.2 56.6,79.5 55.7,82.2 
				55,82.2 54.1,79.5 53.6,82.2 52.8,82.2 			"/>
		</defs>
		<clipPath id="SVGID_178_">
			<use xlink:href="#SVGID_177_"  style="overflow:visible;"/>
		</clipPath>
		<g class="st88">
			<defs>
				<rect id="SVGID_179_" width="179" height="99"/>
			</defs>
			<clipPath id="SVGID_180_">
				<use xlink:href="#SVGID_179_"  style="overflow:visible;"/>
			</clipPath>
			<rect x="47.8" y="72.9" class="st89" width="15" height="14.3"/>
		</g>
	</g>
	<g>
		<defs>
			<path id="SVGID_181_" d="M60.4,77.9h0.8l1.6,4.3H62l-0.3-0.9h-1.7l-0.3,0.9h-0.8L60.4,77.9z M60.8,79l-0.6,1.5h1.1L60.8,79z"/>
		</defs>
		<clipPath id="SVGID_182_">
			<use xlink:href="#SVGID_181_"  style="overflow:visible;"/>
		</clipPath>
		<g class="st90">
			<defs>
				<rect id="SVGID_183_" width="179" height="99"/>
			</defs>
			<clipPath id="SVGID_184_">
				<use xlink:href="#SVGID_183_"  style="overflow:visible;"/>
			</clipPath>
			<rect x="53.7" y="72.9" class="st91" width="14.1" height="14.3"/>
		</g>
	</g>
	<g>
		<defs>
			<path id="SVGID_185_" d="M68,78.6l-0.6,0.6c-0.4-0.4-0.8-0.6-1.3-0.6c-0.4,0-0.8,0.1-1.1,0.4c-0.3,0.3-0.4,0.6-0.4,1
				c0,0.4,0.1,0.8,0.4,1c0.3,0.3,0.7,0.4,1.1,0.4c0.3,0,0.5-0.1,0.7-0.2c0.2-0.1,0.4-0.3,0.5-0.6h-1.2V80h2.2l0,0.2
				c0,0.4-0.1,0.7-0.3,1.1c-0.2,0.3-0.4,0.6-0.7,0.8c-0.3,0.2-0.7,0.3-1.1,0.3c-0.4,0-0.8-0.1-1.2-0.3c-0.3-0.2-0.6-0.5-0.8-0.8
				c-0.2-0.4-0.3-0.7-0.3-1.2c0-0.6,0.2-1.1,0.6-1.5c0.4-0.5,1-0.7,1.7-0.7c0.4,0,0.7,0.1,1,0.2C67.5,78.1,67.7,78.3,68,78.6"/>
		</defs>
		<clipPath id="SVGID_186_">
			<use xlink:href="#SVGID_185_"  style="overflow:visible;"/>
		</clipPath>
		<g class="st92">
			<defs>
				<rect id="SVGID_187_" width="179" height="99"/>
			</defs>
			<clipPath id="SVGID_188_">
				<use xlink:href="#SVGID_187_"  style="overflow:visible;"/>
			</clipPath>
			<rect x="58.9" y="72.8" class="st93" width="14.4" height="14.5"/>
		</g>
	</g>
	<g>
		<defs>
			<path id="SVGID_189_" d="M73.6,78.6L73,79.2c-0.4-0.4-0.8-0.6-1.3-0.6c-0.4,0-0.8,0.1-1.1,0.4c-0.3,0.3-0.4,0.6-0.4,1
				c0,0.4,0.2,0.8,0.4,1c0.3,0.3,0.7,0.4,1.1,0.4c0.3,0,0.5-0.1,0.7-0.2c0.2-0.1,0.3-0.3,0.5-0.6h-1.2V80h2.1l0,0.2
				c0,0.4-0.1,0.7-0.3,1.1c-0.2,0.3-0.4,0.6-0.8,0.8c-0.3,0.2-0.7,0.3-1.1,0.3c-0.4,0-0.8-0.1-1.2-0.3c-0.3-0.2-0.6-0.5-0.8-0.8
				c-0.2-0.4-0.3-0.7-0.3-1.2c0-0.6,0.2-1.1,0.6-1.5c0.4-0.5,1-0.7,1.7-0.7c0.4,0,0.7,0.1,1,0.2C73.1,78.1,73.3,78.3,73.6,78.6"/>
		</defs>
		<clipPath id="SVGID_190_">
			<use xlink:href="#SVGID_189_"  style="overflow:visible;"/>
		</clipPath>
		<g class="st94">
			<defs>
				<rect id="SVGID_191_" width="179" height="99"/>
			</defs>
			<clipPath id="SVGID_192_">
				<use xlink:href="#SVGID_191_"  style="overflow:visible;"/>
			</clipPath>
			<rect x="64.4" y="72.8" class="st95" width="14.4" height="14.5"/>
		</g>
	</g>
	<g>
		<defs>
			<rect id="SVGID_193_" x="75.2" y="77.9" width="0.8" height="4.3"/>
		</defs>
		<clipPath id="SVGID_194_">
			<use xlink:href="#SVGID_193_"  style="overflow:visible;"/>
		</clipPath>
		<g class="st96">
			<defs>
				<rect id="SVGID_195_" width="179" height="99"/>
			</defs>
			<clipPath id="SVGID_196_">
				<use xlink:href="#SVGID_195_"  style="overflow:visible;"/>
			</clipPath>
			<rect x="70.2" y="72.9" class="st97" width="10.8" height="14.3"/>
		</g>
	</g>
	<g>
		<defs>
			<path id="SVGID_197_" d="M82,78.5L81.4,79c-0.2-0.3-0.4-0.4-0.6-0.4c-0.1,0-0.2,0-0.3,0.1c-0.1,0.1-0.1,0.1-0.1,0.2
				c0,0.1,0,0.1,0.1,0.2c0.1,0.1,0.3,0.3,0.6,0.6c0.3,0.3,0.5,0.4,0.6,0.5c0.2,0.2,0.3,0.3,0.4,0.5c0.1,0.2,0.1,0.3,0.1,0.5
				c0,0.3-0.1,0.6-0.4,0.9c-0.2,0.2-0.6,0.3-0.9,0.3c-0.3,0-0.6-0.1-0.8-0.2c-0.2-0.2-0.4-0.4-0.6-0.7l0.7-0.4
				c0.2,0.4,0.4,0.6,0.7,0.6c0.1,0,0.3,0,0.3-0.1c0.1-0.1,0.1-0.2,0.1-0.3c0-0.1,0-0.2-0.1-0.3c-0.1-0.1-0.2-0.2-0.5-0.4
				c-0.5-0.4-0.8-0.7-0.9-0.9c-0.1-0.2-0.2-0.4-0.2-0.6c0-0.3,0.1-0.5,0.3-0.8c0.2-0.2,0.5-0.3,0.8-0.3c0.2,0,0.4,0.1,0.6,0.1
				C81.5,78.1,81.8,78.2,82,78.5"/>
		</defs>
		<clipPath id="SVGID_198_">
			<use xlink:href="#SVGID_197_"  style="overflow:visible;"/>
		</clipPath>
		<g class="st98">
			<defs>
				<rect id="SVGID_199_" width="179" height="99"/>
			</defs>
			<clipPath id="SVGID_200_">
				<use xlink:href="#SVGID_199_"  style="overflow:visible;"/>
			</clipPath>
			<rect x="74.4" y="72.8" class="st99" width="12.7" height="14.5"/>
		</g>
	</g>
	<g>
		<defs>
			<path id="SVGID_201_" d="M84.7,77.9h0.8l1.6,4.3h-0.9L86,81.3h-1.7l-0.3,0.9h-0.8L84.7,77.9z M85.2,79l-0.6,1.5h1.1L85.2,79z"/>
		</defs>
		<clipPath id="SVGID_202_">
			<use xlink:href="#SVGID_201_"  style="overflow:visible;"/>
		</clipPath>
		<g class="st100">
			<defs>
				<rect id="SVGID_203_" width="179" height="99"/>
			</defs>
			<clipPath id="SVGID_204_">
				<use xlink:href="#SVGID_203_"  style="overflow:visible;"/>
			</clipPath>
			<rect x="78.1" y="72.9" class="st101" width="14.1" height="14.3"/>
		</g>
	</g>
	<g>
		<defs>
			<path id="SVGID_205_" d="M88.5,77.9h0.9c0.5,0,0.8,0,1,0.1c0.2,0.1,0.4,0.2,0.5,0.4c0.1,0.2,0.2,0.4,0.2,0.7
				c0,0.3-0.1,0.5-0.2,0.7c-0.1,0.2-0.3,0.3-0.6,0.4l1,1.9h-0.9l-1-1.8h-0.1v1.8h-0.8V77.9z M89.3,79.6h0.3c0.3,0,0.4,0,0.5-0.1
				c0.1-0.1,0.1-0.2,0.1-0.3c0-0.1,0-0.2-0.1-0.2c-0.1-0.1-0.1-0.1-0.2-0.1c-0.1,0-0.2,0-0.4,0h-0.2V79.6z"/>
		</defs>
		<clipPath id="SVGID_206_">
			<use xlink:href="#SVGID_205_"  style="overflow:visible;"/>
		</clipPath>
		<g class="st102">
			<defs>
				<rect id="SVGID_207_" width="179" height="99"/>
			</defs>
			<clipPath id="SVGID_208_">
				<use xlink:href="#SVGID_207_"  style="overflow:visible;"/>
			</clipPath>
			<rect x="83.5" y="72.9" class="st103" width="12.7" height="14.3"/>
		</g>
	</g>
	<g>
		<defs>
			<path id="SVGID_209_" d="M92.5,77.9h1c0.6,0,1.1,0.1,1.4,0.2c0.3,0.2,0.6,0.4,0.7,0.7s0.3,0.7,0.3,1.2c0,0.3-0.1,0.6-0.2,0.9
				c-0.1,0.3-0.3,0.5-0.5,0.7c-0.2,0.2-0.4,0.3-0.6,0.4c-0.2,0.1-0.6,0.1-1.2,0.1h-1V77.9z M93.3,78.7v2.7h0.4c0.4,0,0.6,0,0.8-0.1
				c0.2-0.1,0.3-0.2,0.4-0.4c0.1-0.2,0.2-0.5,0.2-0.7c0-0.5-0.1-0.8-0.4-1.1c-0.2-0.2-0.6-0.3-1.1-0.3H93.3z"/>
		</defs>
		<clipPath id="SVGID_210_">
			<use xlink:href="#SVGID_209_"  style="overflow:visible;"/>
		</clipPath>
		<g class="st104">
			<defs>
				<rect id="SVGID_211_" width="179" height="99"/>
			</defs>
			<clipPath id="SVGID_212_">
				<use xlink:href="#SVGID_211_"  style="overflow:visible;"/>
			</clipPath>
			<rect x="87.5" y="72.9" class="st105" width="13.4" height="14.3"/>
		</g>
	</g>
	<g>
		<defs>
			<rect id="SVGID_213_" x="97.2" y="77.9" width="0.8" height="4.3"/>
		</defs>
		<clipPath id="SVGID_214_">
			<use xlink:href="#SVGID_213_"  style="overflow:visible;"/>
		</clipPath>
		<g class="st106">
			<defs>
				<rect id="SVGID_215_" width="179" height="99"/>
			</defs>
			<clipPath id="SVGID_216_">
				<use xlink:href="#SVGID_215_"  style="overflow:visible;"/>
			</clipPath>
			<rect x="92.2" y="72.9" class="st107" width="10.8" height="14.3"/>
		</g>
	</g>
	<g>
		<defs>
			<polygon id="SVGID_217_" points="101.7,77.9 102.5,77.9 104.4,80.7 104.4,77.9 105.2,77.9 105.2,82.2 104.4,82.2 102.6,79.4 
				102.6,82.2 101.7,82.2 			"/>
		</defs>
		<clipPath id="SVGID_218_">
			<use xlink:href="#SVGID_217_"  style="overflow:visible;"/>
		</clipPath>
		<g class="st108">
			<defs>
				<rect id="SVGID_219_" width="179" height="99"/>
			</defs>
			<clipPath id="SVGID_220_">
				<use xlink:href="#SVGID_219_"  style="overflow:visible;"/>
			</clipPath>
			<rect x="96.7" y="72.9" class="st109" width="13.4" height="14.3"/>
		</g>
	</g>
	<g>
		<defs>
			<polygon id="SVGID_221_" points="106.7,77.9 109.1,77.9 109.1,78.7 107.5,78.7 107.5,79.5 109.1,79.5 109.1,80.3 107.5,80.3 
				107.5,81.4 109.1,81.4 109.1,82.2 106.7,82.2 			"/>
		</defs>
		<clipPath id="SVGID_222_">
			<use xlink:href="#SVGID_221_"  style="overflow:visible;"/>
		</clipPath>
		<g class="st110">
			<defs>
				<rect id="SVGID_223_" width="179" height="99"/>
			</defs>
			<clipPath id="SVGID_224_">
				<use xlink:href="#SVGID_223_"  style="overflow:visible;"/>
			</clipPath>
			<rect x="101.7" y="72.9" class="st111" width="12.3" height="14.3"/>
		</g>
	</g>
	<g>
		<defs>
			<polygon id="SVGID_225_" points="110.4,77.9 111.2,77.9 111.2,81.4 112.4,81.4 112.4,82.2 110.4,82.2 			"/>
		</defs>
		<clipPath id="SVGID_226_">
			<use xlink:href="#SVGID_225_"  style="overflow:visible;"/>
		</clipPath>
		<g class="st112">
			<defs>
				<rect id="SVGID_227_" width="179" height="99"/>
			</defs>
			<clipPath id="SVGID_228_">
				<use xlink:href="#SVGID_227_"  style="overflow:visible;"/>
			</clipPath>
			<rect x="105.4" y="72.9" class="st113" width="12" height="14.3"/>
		</g>
	</g>
	<g>
		<defs>
			<polygon id="SVGID_229_" points="116.3,77.9 117.1,77.9 118.1,80.9 119.1,77.9 119.9,77.9 120.6,82.2 119.8,82.2 119.3,79.5 
				118.4,82.2 117.7,82.2 116.8,79.5 116.4,82.2 115.6,82.2 			"/>
		</defs>
		<clipPath id="SVGID_230_">
			<use xlink:href="#SVGID_229_"  style="overflow:visible;"/>
		</clipPath>
		<g class="st114">
			<defs>
				<rect id="SVGID_231_" width="179" height="99"/>
			</defs>
			<clipPath id="SVGID_232_">
				<use xlink:href="#SVGID_231_"  style="overflow:visible;"/>
			</clipPath>
			<rect x="110.6" y="72.9" class="st115" width="15" height="14.3"/>
		</g>
	</g>
	<g>
		<defs>
			<path id="SVGID_233_" d="M123.8,77.8c0.6,0,1.1,0.2,1.6,0.7c0.4,0.4,0.7,1,0.7,1.6c0,0.6-0.2,1.1-0.6,1.6c-0.4,0.4-1,0.6-1.6,0.6
				c-0.6,0-1.2-0.2-1.6-0.7c-0.4-0.4-0.6-1-0.6-1.6c0-0.4,0.1-0.8,0.3-1.1c0.2-0.3,0.5-0.6,0.8-0.8
				C123.1,77.9,123.5,77.8,123.8,77.8 M123.8,78.6c-0.4,0-0.7,0.1-1,0.4c-0.3,0.3-0.4,0.6-0.4,1c0,0.5,0.2,0.8,0.5,1.1
				c0.3,0.2,0.6,0.3,0.9,0.3c0.4,0,0.7-0.1,1-0.4c0.3-0.3,0.4-0.6,0.4-1c0-0.4-0.1-0.7-0.4-1C124.6,78.7,124.2,78.6,123.8,78.6"/>
		</defs>
		<clipPath id="SVGID_234_">
			<use xlink:href="#SVGID_233_"  style="overflow:visible;"/>
		</clipPath>
		<g class="st116">
			<defs>
				<rect id="SVGID_235_" width="179" height="99"/>
			</defs>
			<clipPath id="SVGID_236_">
				<use xlink:href="#SVGID_235_"  style="overflow:visible;"/>
			</clipPath>
			<rect x="116.6" y="72.8" class="st117" width="14.4" height="14.5"/>
		</g>
	</g>
	<g>
		<defs>
			<polygon id="SVGID_237_" points="127.4,77.9 128.2,77.9 130,80.7 130,77.9 130.8,77.9 130.8,82.2 130.1,82.2 128.2,79.4 
				128.2,82.2 127.4,82.2 			"/>
		</defs>
		<clipPath id="SVGID_238_">
			<use xlink:href="#SVGID_237_"  style="overflow:visible;"/>
		</clipPath>
		<g class="st118">
			<defs>
				<rect id="SVGID_239_" width="179" height="99"/>
			</defs>
			<clipPath id="SVGID_240_">
				<use xlink:href="#SVGID_239_"  style="overflow:visible;"/>
			</clipPath>
			<rect x="122.4" y="72.9" class="st119" width="13.4" height="14.3"/>
		</g>
	</g>
	<g>
		<defs>
			<path id="SVGID_241_" d="M132.4,77.9h1c0.6,0,1.1,0.1,1.4,0.2c0.3,0.2,0.5,0.4,0.7,0.7c0.2,0.3,0.3,0.7,0.3,1.2
				c0,0.3-0.1,0.6-0.2,0.9c-0.1,0.3-0.3,0.5-0.4,0.7c-0.2,0.2-0.4,0.3-0.6,0.4c-0.2,0.1-0.6,0.1-1.2,0.1h-1V77.9z M133.2,78.7v2.7
				h0.4c0.4,0,0.6,0,0.8-0.1c0.2-0.1,0.3-0.2,0.4-0.4c0.1-0.2,0.2-0.5,0.2-0.7c0-0.5-0.1-0.8-0.4-1.1c-0.2-0.2-0.6-0.3-1.1-0.3
				H133.2z"/>
		</defs>
		<clipPath id="SVGID_242_">
			<use xlink:href="#SVGID_241_"  style="overflow:visible;"/>
		</clipPath>
		<g class="st120">
			<defs>
				<rect id="SVGID_243_" width="179" height="99"/>
			</defs>
			<clipPath id="SVGID_244_">
				<use xlink:href="#SVGID_243_"  style="overflow:visible;"/>
			</clipPath>
			<rect x="127.4" y="72.9" class="st121" width="13.4" height="14.3"/>
		</g>
	</g>
	<g>
		<defs>
			<path id="SVGID_245_" d="M139.2,77.8c0.6,0,1.1,0.2,1.6,0.7c0.4,0.4,0.6,1,0.6,1.6c0,0.6-0.2,1.1-0.6,1.6c-0.4,0.4-1,0.6-1.6,0.6
				c-0.6,0-1.2-0.2-1.6-0.7c-0.4-0.4-0.6-1-0.6-1.6c0-0.4,0.1-0.8,0.3-1.1c0.2-0.3,0.5-0.6,0.8-0.8
				C138.4,77.9,138.8,77.8,139.2,77.8 M139.2,78.6c-0.4,0-0.7,0.1-1,0.4c-0.3,0.3-0.4,0.6-0.4,1c0,0.5,0.2,0.8,0.5,1.1
				c0.3,0.2,0.6,0.3,0.9,0.3c0.4,0,0.7-0.1,1-0.4c0.3-0.3,0.4-0.6,0.4-1c0-0.4-0.1-0.7-0.4-1C139.9,78.7,139.6,78.6,139.2,78.6"/>
		</defs>
		<clipPath id="SVGID_246_">
			<use xlink:href="#SVGID_245_"  style="overflow:visible;"/>
		</clipPath>
		<g class="st122">
			<defs>
				<rect id="SVGID_247_" width="179" height="99"/>
			</defs>
			<clipPath id="SVGID_248_">
				<use xlink:href="#SVGID_247_"  style="overflow:visible;"/>
			</clipPath>
			<rect x="132" y="72.8" class="st123" width="14.4" height="14.5"/>
		</g>
	</g>
</g>
</svg>
