<?xml version="1.0" encoding="UTF-8"?>
<svg width="20px" height="20px" viewBox="0 0 20 20" version="1.1" xmlns="http://www.w3.org/2000/svg" xmlns:xlink="http://www.w3.org/1999/xlink">
    <g id="Mobile-414px" stroke="none" stroke-width="1" fill="none" fill-rule="evenodd">
        <g id="Azienda-Comunicazione" transform="translate(-372.000000, -2565.000000)" fill="#998670">
            <g id="Timeline" transform="translate(20.000000, 2545.000000)">
                <g id="feather-icon/arrow-right-copy-2" transform="translate(362.000000, 30.000000) scale(-1, 1) rotate(-180.000000) translate(-362.000000, -30.000000) translate(352.000000, 20.000000)">
                    <path d="M9.11611656,0.366116524 C9.60427193,-0.122038841 10.3957282,-0.122038841 10.8838835,0.366116524 L10.8838835,0.366116524 L19.6338835,9.11611652 C19.6636167,9.14584972 19.691859,9.17707386 19.7184885,9.20966717 C19.7338817,9.22838223 19.7488509,9.24781554 19.7631708,9.26757335 C19.7731094,9.28145766 19.7828841,9.29555316 19.7923724,9.30985521 C19.8048699,9.32849133 19.8167223,9.34745069 19.8280183,9.36664701 C19.8380901,9.38394817 19.8480089,9.40176443 19.857498,9.41984155 C19.8691223,9.44185801 19.8798385,9.46388649 19.8898694,9.48614847 C19.8960022,9.49979429 19.9020615,9.51389191 19.9078662,9.52812049 C19.9183107,9.55381015 19.9277905,9.57953285 19.9363968,9.60548173 C19.9409034,9.6188092 19.945295,9.63282368 19.949444,9.64694192 C19.9567111,9.67207764 19.9631234,9.69676594 19.9687699,9.72159319 C19.972689,9.73827104 19.9763232,9.75595367 19.9795798,9.77376821 C19.9837847,9.79739246 19.9873165,9.82035335 19.990208,9.84337931 C19.9966718,9.89430108 20,9.94676187 20,10 L19.9959476,9.89911895 C19.9980966,9.92582011 19.9993909,9.95257715 19.9998305,9.97934561 L20,10 C20,10.0071346 19.9999402,10.0142552 19.9998212,10.0213614 C19.999364,10.047761 19.998102,10.0738488 19.9960275,10.099884 C19.9945447,10.1191361 19.9925907,10.1382269 19.9902121,10.1571856 C19.9873165,10.1796467 19.9837847,10.2026075 19.9796125,10.2254745 C19.9763232,10.2440463 19.972689,10.261729 19.9686857,10.2792711 C19.9631234,10.3032341 19.9567111,10.3279224 19.9495331,10.352434 C19.945295,10.3671763 19.9409034,10.3811908 19.9362742,10.3950967 C19.9277905,10.4204672 19.9183107,10.4461899 19.9079575,10.4716405 C19.9020615,10.4861081 19.8960022,10.5002057 19.8896939,10.5141667 C19.8798385,10.5361135 19.8691223,10.558142 19.8577208,10.5799051 C19.8480089,10.5982356 19.8380901,10.6160518 19.8277553,10.6335937 C19.8167223,10.6525493 19.8048699,10.6715087 19.792461,10.6902077 C19.7828841,10.7044468 19.7731094,10.7185423 19.7630563,10.7324231 C19.7247499,10.7854378 19.6816541,10.8361129 19.6338836,10.8838835 L19.7184885,10.7903328 C19.7171832,10.7919305 19.7158739,10.793525 19.7145608,10.7951161 L19.6338836,10.8838835 L10.8838835,19.6338835 C10.3957282,20.1220388 9.60427193,20.1220388 9.11611656,19.6338835 C8.62796119,19.1457281 8.62796119,18.3542719 9.11611656,17.8661165 L9.11611656,17.8661165 L15.732,11.25 L1.25000001,11.25 C0.602791311,11.25 0.0704661014,10.7581253 0.00645360911,10.1278052 L4.38760139e-13,10 C4.38760139e-13,9.30964406 0.559644065,8.75 1.25000001,8.75 L1.25000001,8.75 L15.732,8.75 L9.11611656,2.13388348 C8.66050489,1.6782718 8.63013077,0.958451381 9.02499423,0.467611874 Z" id="Shape"></path>
                </g>
            </g>
        </g>
    </g>
</svg>
