<?xml version="1.0" encoding="UTF-8"?>
<svg width="12px" height="12px" viewBox="0 0 12 12" version="1.1" xmlns="http://www.w3.org/2000/svg" xmlns:xlink="http://www.w3.org/1999/xlink">
    <g id="Page-1" stroke="none" stroke-width="1" fill="none" fill-rule="evenodd">
        <g id="Tirso_UI_Color" transform="translate(-63.000000, -3140.000000)" fill="#DEDFDE">
            <g id="Group-13" transform="translate(63.000000, 3140.000000)">
                <g id="feather-icon/arrow-right-copy" transform="translate(6.000000, 6.000000) scale(-1, 1) translate(-6.000000, -6.000000) ">
                    <path d="M5.46966994,0.219669914 C5.76256316,-0.0732233047 6.23743689,-0.0732233047 6.53033011,0.219669914 L6.53033011,0.219669914 L11.7803301,5.46966991 C11.80493,5.49426976 11.8278289,5.52057056 11.8488353,5.54838075 C11.8568243,5.55887091 11.8643147,5.56933877 11.8715035,5.57994996 C11.8825388,5.59634194 11.893187,5.61349194 11.903145,5.63108416 C11.9112981,5.64537558 11.9189416,5.66000914 11.9260697,5.67482849 C11.934555,5.69248608 11.9425505,5.71090579 11.9498114,5.72969108 C11.9539716,5.74054351 11.957697,5.75090869 11.9611871,5.76133534 C11.9684207,5.78271655 11.9748292,5.8051728 11.980192,5.82803188 C11.9829854,5.8402739 11.9854242,5.85196718 11.9875819,5.863702 C11.9957051,5.90731196 12,5.95315442 12,6 L11.9960193,5.92259605 C11.9981099,5.94286288 11.999377,5.96319859 11.9998207,5.98354891 L12,6 C12,6.00580993 11.9999339,6.01160442 11.9998025,6.01738278 C11.9993354,6.03746552 11.9980758,6.05746806 11.9960193,6.07740395 C11.9939369,6.09791564 11.9910889,6.11766744 11.9874876,6.13715509 C11.9854242,6.14803282 11.9829854,6.1597261 11.9802653,6.17136702 C11.9748292,6.1948272 11.9684207,6.21728345 11.9610197,6.23928365 C11.957697,6.24909131 11.9539716,6.25945649 11.9500107,6.26975191 C11.9425505,6.28909421 11.934555,6.30751392 11.9258602,6.32553283 C11.9189416,6.33999086 11.9112981,6.35462442 11.9031392,6.36904532 C11.893187,6.38650806 11.8825388,6.40365806 11.8712371,6.42032907 C11.8451623,6.45893181 11.8147711,6.49588908 11.7803301,6.53033009 L11.8488353,6.45161925 C11.8471451,6.45385686 11.8454427,6.45608469 11.8437281,6.45830264 L11.7803301,6.53033009 L6.53033011,11.7803301 C6.23743689,12.0732233 5.76256316,12.0732233 5.46966994,11.7803301 C5.17677672,11.4874369 5.17677672,11.0125631 5.46966994,10.7196699 L5.46966994,10.7196699 L9.439,6.75 L0.750000003,6.75 C0.370304236,6.75 0.0565090393,6.46784612 0.00684661602,6.10177056 L-3.55271368e-14,6 C-3.55271368e-14,5.58578644 0.335786439,5.25 0.750000003,5.25 L0.750000003,5.25 L9.439,5.25 L5.46966994,1.28033009 C5.20340337,1.01406352 5.17919732,0.597399841 5.39705178,0.303788347 Z" id="Shape"></path>
                </g>
            </g>
        </g>
    </g>
</svg>
