<svg xmlns="http://www.w3.org/2000/svg" xmlns:xlink="http://www.w3.org/1999/xlink" viewBox="0,0,256,256" width="20px" height="20px" fill-rule="nonzero"><g fill="#828380" fill-rule="nonzero" stroke="none" stroke-width="1" stroke-linecap="butt" stroke-linejoin="miter" stroke-miterlimit="10" stroke-dasharray="" stroke-dashoffset="0" font-family="none" font-weight="none" font-size="none" text-anchor="none" style="mix-blend-mode: normal"><g transform="scale(5.12,5.12)"><path d="M25,2c-3.66016,0 -6.84375,1.83984 -8.84375,4.59375c-1.01172,-0.30859 -2.03906,-0.59375 -3.15625,-0.59375c-6.0625,0 -11,4.9375 -11,11c0,4.64063 2.92188,8.54297 7,10.15625v11.53125c-0.05859,0.19531 -0.05859,0.39844 0,0.59375v7.71875c0,0.55078 0.44922,1 1,1h30c0.55078,0 1,-0.44922 1,-1v-7.8125c0.02734,-0.13281 0.02734,-0.27344 0,-0.40625v-11.625c4.07813,-1.61328 7,-5.51562 7,-10.15625c0,-6.0625 -4.9375,-11 -11,-11c-1.11719,0 -2.14453,0.28516 -3.15625,0.59375c-2,-2.75391 -5.18359,-4.59375 -8.84375,-4.59375zM25,4c3.20703,0 5.99609,1.66797 7.59375,4.1875c0.25391,0.41406 0.76953,0.58594 1.21875,0.40625c1,-0.38281 2.0625,-0.59375 3.1875,-0.59375c4.98438,0 9,4.01563 9,9c0,4.03906 -2.66406,7.44531 -6.3125,8.59375c-0.40625,0.13281 -0.68359,0.51172 -0.6875,0.9375v11.46875h-28v-11.46875c-0.00391,-0.42578 -0.28125,-0.80469 -0.6875,-0.9375c-3.64844,-1.14844 -6.3125,-4.55469 -6.3125,-8.59375c0,-4.98437 4.01563,-9 9,-9c1.125,0 2.1875,0.21094 3.1875,0.59375c0.44922,0.17969 0.96484,0.00781 1.21875,-0.40625c1.59766,-2.51953 4.38672,-4.1875 7.59375,-4.1875zM17.90625,26.96875c-0.04297,0.00781 -0.08594,0.01953 -0.125,0.03125c-0.46484,0.10547 -0.79297,0.52344 -0.78125,1v3c-0.00391,0.35938 0.18359,0.69531 0.49609,0.87891c0.3125,0.17969 0.69531,0.17969 1.00781,0c0.3125,-0.18359 0.5,-0.51953 0.49609,-0.87891v-3c0.01172,-0.28906 -0.10547,-0.56641 -0.3125,-0.76172c-0.21094,-0.19922 -0.49609,-0.29687 -0.78125,-0.26953zM24.90625,26.96875c-0.04297,0.00781 -0.08594,0.01953 -0.125,0.03125c-0.46484,0.10547 -0.79297,0.52344 -0.78125,1v4c-0.00391,0.35938 0.18359,0.69531 0.49609,0.87891c0.3125,0.17969 0.69531,0.17969 1.00781,0c0.3125,-0.18359 0.5,-0.51953 0.49609,-0.87891v-4c0.01172,-0.28906 -0.10547,-0.56641 -0.3125,-0.76172c-0.21094,-0.19922 -0.49609,-0.29687 -0.78125,-0.26953zM31.90625,26.96875c-0.04297,0.00781 -0.08594,0.01953 -0.125,0.03125c-0.46484,0.10547 -0.79297,0.52344 -0.78125,1v3c-0.00391,0.35938 0.18359,0.69531 0.49609,0.87891c0.3125,0.17969 0.69531,0.17969 1.00781,0c0.3125,-0.18359 0.5,-0.51953 0.49609,-0.87891v-3c0.01172,-0.28906 -0.10547,-0.56641 -0.3125,-0.76172c-0.21094,-0.19922 -0.49609,-0.29687 -0.78125,-0.26953zM11,40h28v6h-28z"></path></g></g></svg>