<?xml version="1.0" encoding="UTF-8"?>
<svg width="14px" height="14px" viewBox="0 0 14 14" version="1.1" xmlns="http://www.w3.org/2000/svg" xmlns:xlink="http://www.w3.org/1999/xlink">
    <g id="Mobile-414px" stroke="none" stroke-width="1" fill="none" fill-rule="evenodd">
        <path d="M0.278417082,0.278417066 C0.649639856,-0.092805708 1.25151089,-0.0928057073 1.62273367,0.278417068 L1.62273367,0.278417068 L7,5.65599999 L12.3772664,0.278417068 C12.7199335,-0.0642501092 13.2591294,-0.0906091234 13.6320318,0.199340026 L13.721583,0.278417066 C14.0928057,0.64963984 14.0928057,1.25151088 13.721583,1.62273365 L13.721583,1.62273365 L8.344,6.99999999 L13.721583,12.3772664 C14.0642501,12.7199335 14.0906091,13.2591294 13.80066,13.6320318 L13.721583,13.7215829 C13.3503602,14.0928057 12.7484891,14.0928057 12.3772664,13.7215829 L12.3772664,13.7215829 L7,8.34399999 L1.62273367,13.7215829 C1.28006649,14.0642501 0.740870618,14.0906091 0.367968257,13.80066 L0.278417082,13.7215829 C-0.0928056922,13.3503602 -0.0928056915,12.7484891 0.278417083,12.3772664 L0.278417083,12.3772664 L5.656,6.99999999 L0.278417083,1.62273365 C-0.0642500935,1.28006647 -0.0906091076,0.740870602 0.199340041,0.367968242 Z" id="Shape" fill="#82A44B"></path>
    </g>
</svg>
