<?xml version="1.0" encoding="UTF-8"?>
<svg width="45px" height="45px" viewBox="0 0 45 45" version="1.1" xmlns="http://www.w3.org/2000/svg" xmlns:xlink="http://www.w3.org/1999/xlink">
    <defs>
        <polygon id="path-1" points="0 0.052664 44.946968 0.052664 44.946968 45 0 45"></polygon>
    </defs>
    <g id="Page-1" stroke="none" stroke-width="1" fill="none" fill-rule="evenodd">
        <g id="Facebook">
            <g id="Group-16">
                <mask id="mask-2" fill="white">
                    <use xlink:href="#path-1"></use>
                </mask>
                <g id="Clip-15"></g>
                <path d="M22.473208,45.000184 C10.082648,45.000184 -0.000552,34.918824 -0.000552,22.526424 C-0.000552,10.134024 10.082648,0.052664 22.473208,0.052664 C34.865608,0.052664 44.946968,10.134024 44.946968,22.526424 C44.946968,34.918824 34.865608,45.000184 22.473208,45.000184" id="Fill-14" fill="#F4F4F2" mask="url(#mask-2)"></path>
            </g>
            <path d="M18.8644716,22.6069526 L18.8644716,35.6607021 C18.8644716,35.8487911 19.0211671,36 19.2179921,36 L24.2398942,36 C24.4348082,36 24.5915037,35.8487911 24.5915037,35.6607021 L24.5915037,22.3948914 L28.2337204,22.3948914 C28.4171689,22.3948914 28.5700426,22.2602787 28.58533,22.0832537 L28.9369396,18.0854391 C28.952227,17.886286 28.7897986,17.7184811 28.58533,17.7184811 L24.5915037,17.7184811 L24.5915037,14.8823931 C24.5915037,14.2167054 25.1514038,13.6764103 25.8393356,13.6764103 L28.6464795,13.6764103 C28.8413935,13.6764103 29,13.5252015 29,13.3389564 L29,9.34114192 C29,9.15305286 28.8413935,9 28.6464795,9 L23.903572,9 C21.12127,9 18.8644716,11.1777763 18.8644716,13.8644994 L18.8644716,17.7184811 L16.3535205,17.7184811 C16.1586065,17.7184811 16,17.8696899 16,18.055935 L16,22.0537495 C16,22.2418385 16.1586065,22.3948914 16.3535205,22.3948914 L18.8644716,22.3948914 L18.8644716,22.6069526 Z" id="Fill-17" fill="#82A44B"></path>
        </g>
    </g>
</svg>
