<svg xmlns="http://www.w3.org/2000/svg" xmlns:xlink="http://www.w3.org/1999/xlink" viewBox="0,0,256,256" width="20px" height="20px" fill-rule="nonzero"><g fill="#828380" fill-rule="nonzero" stroke="none" stroke-width="1" stroke-linecap="butt" stroke-linejoin="miter" stroke-miterlimit="10" stroke-dasharray="" stroke-dashoffset="0" font-family="none" font-weight="none" font-size="none" text-anchor="none" style="mix-blend-mode: normal"><g transform="scale(5.12,5.12)"><path d="M21.75,0c-0.44531,0.08203 -0.77734,0.45703 -0.8125,0.90625c-0.62109,6.94922 -4.63672,11.53516 -8.71875,16.28125c-4.08203,4.74609 -8.21875,9.70703 -8.21875,17.15625c0,5.10547 2.28516,9.0625 5.28125,11.6875c2.99609,2.625 6.66406,3.96875 9.71875,3.96875c0.35938,0.00391 0.69531,-0.18359 0.87891,-0.49609c0.17969,-0.3125 0.17969,-0.69531 0,-1.00781c-0.18359,-0.3125 -0.51953,-0.5 -0.87891,-0.49609c-2.44531,0 -5.77734,-1.16406 -8.40625,-3.46875c-2.62891,-2.30469 -4.59375,-5.67187 -4.59375,-10.1875c0,-6.71484 3.68359,-11.14453 7.75,-15.875c3.75391,-4.36719 7.70313,-9.05859 8.84375,-15.75c15.14453,10.62109 21.40625,21.41797 21.40625,29.53125c0,7.71094 -4.70703,13.91797 -9.375,15.8125c-0.51953,0.20703 -0.76953,0.79297 -0.5625,1.3125c0.20703,0.51953 0.79297,0.76953 1.3125,0.5625c5.61328,-2.27734 10.625,-9.17578 10.625,-17.6875c0,-9.36719 -7.09375,-20.94141 -23.5,-32.0625c-0.19141,-0.13672 -0.42187,-0.20312 -0.65625,-0.1875c-0.03125,0 -0.0625,0 -0.09375,0zM25.59375,15.40625c-0.27344,0.03125 -0.51953,0.17188 -0.6875,0.39063c-0.16406,0.21875 -0.23047,0.49609 -0.1875,0.76563c0.60938,3.52344 0.75781,6.42188 0.5625,8.59375c-0.19531,2.17188 -0.73828,3.61719 -1.3125,4.28125c-0.57422,0.66406 -1.01172,0.74609 -1.875,0.375c-0.86328,-0.37109 -2.08203,-1.44531 -3.3125,-3.34375c-0.17578,-0.26953 -0.47266,-0.4375 -0.79687,-0.44922c-0.32031,-0.01172 -0.62891,0.13281 -0.82812,0.38672c-3.73047,5.03125 -3.5625,9.05469 -2.25,11.65625c1.3125,2.60156 3.625,3.8125 3.625,3.8125c0.31641,0.22266 0.73047,0.24219 1.07031,0.05469c0.33594,-0.19141 0.53125,-0.55859 0.50391,-0.94531c-0.02734,-0.38672 -0.27734,-0.71875 -0.63672,-0.85937c0,0 -1.78125,-0.95703 -2.78125,-2.9375c-0.90625,-1.80078 -1.14453,-4.5 1.375,-8.4375c1.05469,1.36328 2.11719,2.41797 3.25,2.90625c1.46484,0.62891 3.12891,0.28516 4.15625,-0.90625c1.02734,-1.19141 1.59375,-3.02734 1.8125,-5.4375c0.15234,-1.68359 0.03125,-3.76953 -0.21875,-6.0625c2.70703,2.67578 4.90234,5.55859 5.78125,8.6875c1.10156,3.92188 0.55078,8.07813 -2.65625,12.46875c-0.32812,0.44922 -0.23047,1.07813 0.21875,1.40625c0.44922,0.32813 1.07813,0.23047 1.40625,-0.21875c3.50391,-4.79687 4.22656,-9.72266 2.96875,-14.1875c-1.25781,-4.46484 -4.41406,-8.46484 -8.4375,-11.78125c-0.21094,-0.17187 -0.48047,-0.25 -0.75,-0.21875z"></path></g></g></svg>