<svg xmlns="http://www.w3.org/2000/svg" xmlns:xlink="http://www.w3.org/1999/xlink" viewBox="0,0,256,256" width="20px" height="20px" fill-rule="nonzero"><g fill="#828380" fill-rule="nonzero" stroke="none" stroke-width="1" stroke-linecap="butt" stroke-linejoin="miter" stroke-miterlimit="10" stroke-dasharray="" stroke-dashoffset="0" font-family="none" font-weight="none" font-size="none" text-anchor="none" style="mix-blend-mode: normal"><g transform="scale(5.12,5.12)"><path d="M14.28125,2.82617l-0.54883,0.17188c0,0 -0.71333,0.23528 -1.77734,0.88867c-1.06402,0.65339 -2.55523,1.74962 -4.34961,3.54297c-1.79423,1.7932 -2.91016,3.30227 -3.58203,4.38086c-0.67187,1.07859 -0.92383,1.79688 -0.92383,1.79688l-0.18555,0.55273l0.38672,0.43359c0,0 5.9465,6.66821 9.85156,10.57227c2.36995,2.36885 4.92085,2.5569 6.80078,2.3125c0.93997,-0.1222 1.74202,-0.31542 2.29883,-0.36523c0.55681,-0.04982 0.72108,-0.0016 0.87109,0.14844c0.72414,0.72518 2.61627,3.05217 4.74414,5.62109c2.1283,2.56945 4.54362,5.42715 6.58203,7.46094c3.67012,3.67051 5.95126,5.44089 7.69727,6.19727c0.8731,0.37823 1.6601,0.49759 2.35547,0.34961c0.69537,-0.14798 1.20797,-0.54873 1.56836,-0.9082c0.36244,-0.36021 0.76668,-0.8727 0.91602,-1.56836c0.14947,-0.69631 0.02853,-1.48527 -0.34961,-2.35937c-0.75628,-1.74821 -2.52671,-4.02974 -6.19922,-7.69922c-2.03541,-2.03541 -4.89576,-4.44568 -7.4668,-6.57031c-2.57103,-2.12463 -4.9001,-4.01466 -5.625,-4.73828c-0.15102,-0.15066 -0.1956,-0.30443 -0.14258,-0.85547c0.05302,-0.55104 0.25263,-1.349 0.37891,-2.28711c0.25256,-1.87622 0.06196,-4.43163 -2.33398,-6.82812c-2.60087,-2.60087 -10.54102,-9.86133 -10.54102,-9.86133zM44.05273,3.00195c-0.24994,0.00933 -0.49113,0.11222 -0.67187,0.29297l-13.82031,13.81445c0.157,1.024 0.12525,1.97087 0.03125,2.79688l14.02539,-14.02148c1.805,7.405 -3.1555,13.13102 -4.8125,14.79102c-1.976,1.973 -4.35586,2.96177 -6.75586,3.75977c0.203,0.167 0.40333,0.33291 0.61133,0.50391c0.386,0.318 0.78541,0.64547 1.19141,0.98047c2.198,-0.81 4.43819,-1.90508 6.36719,-3.83008h0.00195c1.98,-1.983 8.18064,-9.17464 4.80664,-18.43164c-0.117,-0.321 -0.38966,-0.56077 -0.72266,-0.63477c-0.08325,-0.018 -0.16864,-0.02459 -0.25195,-0.02148zM13.85156,5.1543c0.69099,0.63308 7.62218,6.97765 9.98047,9.33594c1.97105,1.97151 1.98202,3.55541 1.76758,5.14844c-0.10722,0.79652 -0.31024,1.56658 -0.38672,2.36133c-0.0764,0.79397 0.02212,1.76425 0.71875,2.46094c0.9711,0.96938 3.20641,2.75037 5.76563,4.86523c2.55922,2.11487 5.39658,4.51377 7.32617,6.44336c3.60049,3.59752 5.23982,5.83303 5.7793,7.08008c0.26974,0.62352 0.26812,0.95093 0.22656,1.14453c-0.04156,0.1936 -0.13884,0.34352 -0.36914,0.57227h-0.00195c-0.23011,0.22953 -0.37848,0.3279 -0.57227,0.36914c-0.19379,0.04124 -0.52151,0.04138 -1.14453,-0.22852c-1.24605,-0.53979 -3.48095,-2.17772 -7.08008,-5.77734v-0.00195c-1.93259,-1.92821 -4.33467,-4.76276 -6.45312,-7.32031c-2.11845,-2.55756 -3.90291,-4.79044 -4.87109,-5.75977c-0.69748,-0.69748 -1.66451,-0.79799 -2.46289,-0.72656c-0.79838,0.07143 -1.57662,0.26875 -2.37891,0.37305c-1.60457,0.2086 -3.18986,0.19596 -5.12891,-1.74219c-3.63704,-3.6361 -8.79468,-9.41685 -9.3125,-9.99609c0.08888,-0.20576 0.08763,-0.27998 0.4668,-0.88867c0.58938,-0.94616 1.60806,-2.33364 3.29883,-4.02344c1.69062,-1.68965 3.05769,-2.68409 3.98242,-3.25195c0.59057,-0.36266 0.6533,-0.35595 0.84961,-0.4375zM13.99023,8.99023c-0.40692,0.00011 -0.77321,0.24676 -0.92633,0.62377c-0.15312,0.37701 -0.06255,0.80921 0.22907,1.09303l7,7c0.25082,0.26124 0.62327,0.36648 0.97371,0.27512c0.35044,-0.09136 0.62411,-0.36503 0.71547,-0.71547c0.09136,-0.35044 -0.01388,-0.72289 -0.27512,-0.97371l-7,-7c-0.18827,-0.19353 -0.4468,-0.30272 -0.7168,-0.30273zM9.99023,12.99023c-0.40692,0.00011 -0.77321,0.24676 -0.92633,0.62377c-0.15312,0.37701 -0.06255,0.80921 0.22907,1.09303l7,7c0.25082,0.26124 0.62327,0.36648 0.97371,0.27512c0.35044,-0.09136 0.62411,-0.36503 0.71547,-0.71547c0.09136,-0.35044 -0.01388,-0.72289 -0.27512,-0.97371l-7,-7c-0.18827,-0.19353 -0.44679,-0.30272 -0.7168,-0.30274zM15.89063,29.16406c-1.352,1.219 -2.85816,2.64136 -4.53516,4.31836c-7.094,7.092 -8.65297,10.08812 -6.41797,12.32813c0.736,0.735 1.54866,1.20117 2.59766,1.20117c2.023,0 4.92155,-1.736 9.81055,-6.625c2.642,-2.643 4.4685,-5.48458 5.9375,-7.76758c0.273,-0.425 0.5322,-0.82122 0.7832,-1.19922c-0.488,-0.589 -0.94494,-1.13966 -1.33594,-1.59766c-0.353,0.517 -0.71991,1.07984 -1.12891,1.71484c-1.417,2.202 -3.18187,4.94355 -5.67187,7.43555c-7.499,7.499 -8.90313,6.09983 -9.57813,5.42383c-0.461,-0.461 -1.54003,-1.543 6.41797,-9.5c2.177,-2.177 4.05755,-3.91298 5.68555,-5.33398c-0.798,-0.014 -1.66245,-0.12244 -2.56445,-0.39844z"></path></g></g></svg>