<svg xmlns="http://www.w3.org/2000/svg" xmlns:xlink="http://www.w3.org/1999/xlink" viewBox="0,0,256,256" width="24px" height="24px" fill-rule="nonzero"><g fill="#82715f" fill-rule="nonzero" stroke="none" stroke-width="1" stroke-linecap="butt" stroke-linejoin="miter" stroke-miterlimit="10" stroke-dasharray="" stroke-dashoffset="0" font-family="none" font-weight="none" font-size="none" text-anchor="none" style="mix-blend-mode: normal"><g transform="scale(5.12,5.12)"><path d="M35.9375,0c-0.19141,0.00391 -0.375,0.04297 -0.5625,0.09375c-0.74219,0.20703 -1.41016,0.69922 -1.9375,1.375c-0.01172,0.01172 -0.01953,0.01953 -0.03125,0.03125l-8.34375,11.6875c-5.12891,-1.1875 -10.72656,0.16406 -14.71875,4.15625c-0.38672,0.39063 -0.38672,1.01563 0,1.40625l7.4375,7.40625l-17.5625,22.21875c-0.32031,0.39844 -0.28906,0.97266 0.07031,1.33594c0.36328,0.35938 0.9375,0.39063 1.33594,0.07031l22.1875,-17.5625l7.4375,7.40625c0.39063,0.38672 1.01563,0.38672 1.40625,0c4.05078,-4.04687 5.375,-9.75 4.09375,-14.9375l11.71875,-7.96875c0.01172,-0.01172 0.01953,-0.01953 0.03125,-0.03125c0.68359,-0.50781 1.15625,-1.13672 1.375,-1.875c0.21875,-0.73828 0.10938,-1.67187 -0.5,-2.28125l-11.75,-11.90625c-0.30078,-0.30859 -0.69922,-0.48047 -1.09375,-0.5625c-0.19922,-0.04297 -0.40234,-0.06641 -0.59375,-0.0625zM36.125,2c0.03516,0.00391 0.03906,0.00781 0.0625,0.03125l11.78125,11.90625c0.04297,0.04297 0.06641,0.05469 0,0.28125c-0.06641,0.21875 -0.29687,0.5625 -0.65625,0.84375l-0.03125,0.03125l-12.15625,8.28125c-0.01172,0.01172 -0.01953,0.01953 -0.03125,0.03125l-0.0625,0.03125c-0.33203,0.25781 -0.46875,0.69141 -0.34375,1.09375c1.30859,4.38672 0.30859,9.22266 -2.84375,12.875l-19.28125,-19.25c3.60547,-3.10937 8.37891,-4.13672 12.71875,-2.90625c0.41406,0.11328 0.85547,-0.05078 1.09375,-0.40625l8.625,-12.15625l0.03125,-0.03125c0.28906,-0.35547 0.65234,-0.5625 0.875,-0.625c0.11719,-0.03125 0.18359,-0.03516 0.21875,-0.03125zM19.1875,27.59375l3.21875,3.1875l-15.28125,12.09375z"></path></g></g></svg>