<?xml version="1.0" encoding="UTF-8"?>
<svg width="45px" height="45px" viewBox="0 0 45 45" version="1.1" xmlns="http://www.w3.org/2000/svg" xmlns:xlink="http://www.w3.org/1999/xlink">
    <g id="Page-1" stroke="none" stroke-width="1" fill="none" fill-rule="evenodd">
        <g id="Pinterest">
            <path d="M42,22.5009173 C42,33.2687115 33.2687115,42 22.4990827,42 C11.7294538,42 3,33.2687115 3,22.5009173 C3,11.7312885 11.7294538,3 22.4990827,3 C33.2687115,3 42,11.7312885 42,22.5009173" id="Fill-24" fill="#82A44B"></path>
            <path d="M22.5,0 C34.9070793,0 45,10.094775 45,22.5 C45,34.9070793 34.9070793,45 22.5,45 C10.094775,45 0,34.9070793 0,22.5 C0,10.094775 10.094775,0 22.5,0 Z M23,6 C13.6111588,6 6,13.6111588 6,23 C6,32.3888412 13.6111588,40 23,40 C32.3888412,40 40,32.3888412 40,23 C40,13.6111588 32.3888412,6 23,6 Z M23.0007056,11 C29.6276239,11 35,16.3723761 35,23.0007056 C35,29.6276239 29.6276239,35 23.0007056,35 C21.8195449,35 20.6793085,34.8264244 19.599753,34.5074969 C20.0555654,33.7877933 20.5537132,32.8620568 20.8077262,31.9377315 C20.9544893,31.4043041 21.651614,28.6397954 21.651614,28.6397954 C22.0693244,29.4342918 23.2885871,30.1342388 24.5826424,30.1342388 C28.4422297,30.1342388 31.0585641,26.6175692 31.0585641,21.9098606 C31.0585641,18.3522667 28.0428647,15.034574 23.4607515,15.034574 C17.7595696,15.034574 14.8849885,19.1241842 14.8849885,22.5321926 C14.8849885,24.5967543 15.6653731,26.4327042 17.3432704,27.1171282 C17.61704,27.2300229 17.862586,27.1199506 17.9430235,26.8165461 C17.9980596,26.6062798 18.1307109,26.0728524 18.1871582,25.8541189 C18.2675957,25.5521256 18.2379608,25.447698 18.0149938,25.1838067 C17.532369,24.6136885 17.224731,23.8770506 17.224731,22.8299524 C17.224731,19.7987299 19.4925031,17.0850238 23.1319457,17.0850238 C26.3536779,17.0850238 28.1247134,19.053625 28.1247134,21.6826601 C28.1247134,25.1428823 26.5935791,28.0626213 24.3201623,28.0626213 C23.0642089,28.0626213 22.1257717,27.0254013 22.4263539,25.7511025 C22.7862057,24.2312577 23.4861528,22.5900512 23.4861528,21.4935615 C23.4861528,20.5113777 22.9583701,19.69148 21.8675251,19.69148 C20.5847592,19.69148 19.553184,21.0194038 19.553184,22.7974951 C19.553184,23.9306756 19.9356147,24.6969483 19.9356147,24.6969483 C19.9356147,24.6969483 19.5700463,26.2468798 19.1907636,27.8538522 L19.1907636,27.8538522 L19.0709446,28.3614721 C18.7723094,29.6265557 18.4882107,30.8292468 18.3917799,31.2349621 C18.1786911,32.1465867 18.1504675,33.1541718 18.1843359,33.9910037 C13.9550185,32.1352972 11,27.9130358 11,23.0007056 C11,16.3723761 16.3737873,11 23.0007056,11 Z" id="Fill-26" fill="#F4F4F2"></path>
        </g>
    </g>
</svg>
