<svg xmlns="http://www.w3.org/2000/svg" xmlns:xlink="http://www.w3.org/1999/xlink" viewBox="0,0,256,256" width="20px" height="20px" fill-rule="nonzero"><g fill="#828380" fill-rule="nonzero" stroke="none" stroke-width="1" stroke-linecap="butt" stroke-linejoin="miter" stroke-miterlimit="10" stroke-dasharray="" stroke-dashoffset="0" font-family="none" font-weight="none" font-size="none" text-anchor="none" style="mix-blend-mode: normal"><g transform="scale(5.12,5.12)"><path d="M25,7c-3.67187,0 -6.77734,2.46875 -7.75,5.84375c-7.20703,1.48828 -11.35937,4.57422 -12.15625,5.21875c-2.71484,0.36328 -4.09375,2.30859 -4.09375,3.9375c0,0.46094 0.34375,0.87891 0.5625,1.03125c0.21875,0.15234 0.37891,0.1875 0.53125,0.25c0.30078,0.125 0.55859,0.25 0.8125,0.4375c0.50391,0.37109 1.09375,1.03125 1.09375,3.28125v2.15625l-2.625,-1.09375c-0.17578,-0.07422 -0.37109,-0.09766 -0.5625,-0.0625c-0.46094,0.0625 -0.81641,0.43359 -0.85937,0.89453c-0.04687,0.46094 0.23438,0.89453 0.67188,1.04297l3.375,1.40625v7.65625c0,2.49219 1.3125,5.1875 3.4375,7.3125c2.125,2.125 5.12891,3.6875 8.5625,3.6875h18c3.43359,0 6.4375,-1.5625 8.5625,-3.6875c2.125,-2.125 3.4375,-4.82031 3.4375,-7.3125v-7.6875l3.375,-1.375c0.53516,-0.13672 0.85547,-0.68359 0.71875,-1.21875c-0.13672,-0.53516 -0.68359,-0.85547 -1.21875,-0.71875c-0.08594,0.01172 -0.16797,0.03125 -0.25,0.0625l-2.625,1.09375v-2.15625c0,-2.25 0.58984,-2.91016 1.09375,-3.28125c0.25391,-0.1875 0.51172,-0.3125 0.8125,-0.4375c0.15234,-0.0625 0.3125,-0.09766 0.53125,-0.25c0.21875,-0.15234 0.5625,-0.57031 0.5625,-1.03125c0,-1.62891 -1.37891,-3.57422 -4.09375,-3.9375c-0.79687,-0.64453 -4.94922,-3.73047 -12.15625,-5.21875c-0.96875,-3.37891 -4.07422,-5.84375 -7.75,-5.84375zM25,9c2.42969,0 4.49609,1.42188 5.46875,3.46875c-1.69141,-0.23828 -3.5,-0.40625 -5.46875,-0.40625c-1.95703,0 -3.75391,0.16797 -5.4375,0.40625c0.97656,-2.03516 3.01953,-3.46875 5.4375,-3.46875zM25,14.0625c7.92188,0 13.10938,2.25781 16.03125,3.9375h-32.0625c2.92188,-1.67969 8.10938,-3.9375 16.03125,-3.9375zM6,20h38c2.13281,0 2.65625,0.94141 2.8125,1.625c-0.26562,0.11328 -0.54687,0.20313 -0.90625,0.46875c-0.99609,0.73438 -1.90625,2.25 -1.90625,4.90625v12c0,1.74609 -1.0625,4.0625 -2.875,5.875c-1.8125,1.8125 -4.30469,3.125 -7.125,3.125h-18c-2.82031,0 -5.3125,-1.3125 -7.125,-3.125c-1.8125,-1.8125 -2.875,-4.12891 -2.875,-5.875v-12c0,-2.65625 -0.91016,-4.17187 -1.90625,-4.90625c-0.35937,-0.26562 -0.64062,-0.35547 -0.90625,-0.46875c0.15625,-0.68359 0.67969,-1.625 2.8125,-1.625z"></path></g></g></svg>