<?xml version="1.0" encoding="UTF-8"?>
<svg width="20px" height="20px" viewBox="0 0 20 20" version="1.1" xmlns="http://www.w3.org/2000/svg" xmlns:xlink="http://www.w3.org/1999/xlink">
    <g id="Symbols" stroke="none" stroke-width="1" fill="none" fill-rule="evenodd">
        <g id="Header" transform="translate(-1253.000000, -28.000000)" fill="#88AD6A">
            <g id="Shape" transform="translate(1251.000000, 26.000000)">
                <path d="M11,1.99999996 C15.9705628,1.99999996 20,6.02943723 20,11 C20,13.124779 19.2636898,15.0775836 18.0323074,16.6171756 L21.7071068,20.2928933 C22.0976311,20.6834175 22.0976311,21.3165825 21.7071068,21.7071068 C21.3165825,22.0976311 20.6834175,22.0976311 20.2928933,21.7071068 L20.2928933,21.7071068 L16.6171756,18.0323074 C15.0775836,19.2636898 13.124779,20 11,20 C6.02943723,20 1.99999996,15.9705628 1.99999996,11 C1.99999996,6.02943723 6.02943723,1.99999996 11,1.99999996 Z M11,3.99999997 C7.13400673,3.99999997 3.99999997,7.13400673 3.99999997,11 C3.99999997,14.8659933 7.13400673,18 11,18 C12.8904747,18 14.6059153,17.25059 15.8654514,16.0326404 L15.9428932,15.9428932 C15.9713525,15.914434 16.0011003,15.8880487 16.031949,15.8637373 C17.25059,14.6059153 18,12.8904747 18,11 C18,7.13400673 14.8659933,3.99999997 11,3.99999997 Z"></path>
            </g>
        </g>
    </g>
</svg>
