<?xml version="1.0" encoding="UTF-8"?>
<svg width="46px" height="45px" viewBox="0 0 46 45" version="1.1" xmlns="http://www.w3.org/2000/svg" xmlns:xlink="http://www.w3.org/1999/xlink">
    <defs>
        <polygon id="path-1" points="0.757353846 0.052664 45.8552 0.052664 45.8552 45 0.757353846 45"></polygon>
    </defs>
    <g id="Page-1" stroke="none" stroke-width="1" fill="none" fill-rule="evenodd">
        <g id="Twitter">
            <g id="Group-3">
                <mask id="mask-2" fill="white">
                    <use xlink:href="#path-1"></use>
                </mask>
                <g id="Clip-2"></g>
                <path d="M23.3062769,45.000184 C10.8742769,45.000184 0.757353846,34.918824 0.757353846,22.526424 C0.757353846,10.134024 10.8742769,0.052664 23.3062769,0.052664 C35.7382769,0.052664 45.8552,10.134024 45.8552,22.526424 C45.8552,34.918824 35.7382769,45.000184 23.3062769,45.000184" id="Fill-1" fill="#F4F4F2" mask="url(#mask-2)"></path>
            </g>
            <path d="M35.9011871,13.6361266 C35.0756917,14.0207532 34.1661857,14.2534053 33.2767692,14.4072559 C33.6986485,14.3340831 34.323249,13.5479439 34.5698018,13.2289853 C34.9515021,12.7430425 35.267455,12.1895555 35.4464341,11.5929153 C35.4683499,11.5478858 35.4847867,11.4878466 35.4409551,11.4521982 C35.3843393,11.4296835 35.3459866,11.4409409 35.302155,11.4653318 C34.3068121,12.0131901 33.2767692,12.4109503 32.1828052,12.6905081 C32.0914893,12.7148991 32.0239156,12.6905081 31.9672997,12.6323451 C31.8759839,12.5272764 31.790147,12.4278363 31.6933522,12.3471586 C31.2331202,11.9437697 30.7400146,11.6285636 30.1829878,11.3959114 C29.4524609,11.0900864 28.652534,10.9587505 27.8653912,11.0112849 C27.1001643,11.061943 26.3477216,11.2833378 25.6665053,11.6492021 C24.9834626,12.0150664 24.375299,12.5235239 23.8931513,13.1370502 C23.390914,13.7730912 23.0219979,14.523582 22.8338873,15.3172261 C22.6494292,16.084603 22.6658661,16.844475 22.7754451,17.6193568 C22.7937083,17.7469402 22.7809241,17.7638262 22.6695187,17.7469402 C18.3831522,17.0921369 14.8327915,15.5179824 11.9490365,12.1426498 C11.8230207,11.9963041 11.7554469,11.9963041 11.6549995,12.1539072 C10.3911879,14.0958022 11.0030042,17.2178442 12.579116,18.7525979 C12.7909688,18.9552305 13.0064742,19.1597392 13.2402428,19.3473619 C13.1544059,19.3661242 12.1060998,19.2479219 11.1710254,18.7525979 C11.0468358,18.6719202 10.9810884,18.7169496 10.9719568,18.8632953 C10.9609989,19.0715565 10.9774358,19.2666842 11.0048305,19.4937076 C11.2477307,21.4637461 12.5754634,23.2855626 14.3944753,23.9947765 C14.6099808,24.0885878 14.8492283,24.1692656 15.0811706,24.2124188 C14.6665966,24.3062302 14.2410647,24.3718981 13.0503058,24.2762106 C12.9042005,24.2461909 12.8475846,24.32124 12.9042005,24.4675857 C13.7954433,26.9667202 15.7240343,27.7115824 17.1668249,28.1356097 C17.3604145,28.1693818 17.5521778,28.1693818 17.7475938,28.2162875 C17.7348095,28.2350498 17.7238516,28.2350498 17.7128937,28.2519358 C17.2325723,29.0005504 15.5742763,29.5596661 14.8017441,29.8373477 C13.3954798,30.3420528 11.8650259,30.5690763 10.38023,30.4171019 C10.1428088,30.3833298 10.0916719,30.385206 10.0277508,30.4171019 C9.96382971,30.4602551 10.0204455,30.5184182 10.0953245,30.5803337 C10.3966669,30.7867186 10.7034882,30.9668364 11.0176148,31.1432018 C11.9618208,31.6554118 12.9443794,32.0644293 13.972596,32.3571207 C19.2835266,33.8637311 25.2665418,32.7548809 29.2533923,28.6853443 C32.3855264,25.4882533 33.4849694,21.0809958 33.4849694,16.6662334 C33.4849694,16.4936205 33.6822116,16.3998091 33.8009223,16.307874 C34.6154597,15.6793379 35.261976,14.9250946 35.8701397,14.0845449 C36.0089398,13.8969222 36,13.729938 36,13.6605175 L36,13.6361266 C36,13.5667062 36.0089398,13.5873447 35.9011871,13.6361266" id="Fill-4" fill="#82A44B"></path>
        </g>
    </g>
</svg>
